<svg width="1200" height="232" viewBox="0 0 1200 232" fill="none" xmlns="http://www.w3.org/2000/svg">
<rect x="1.5" y="1.5" width="279" height="145" fill="white"/>
<rect x="1.5" y="1.5" width="279" height="145" stroke="#96945C" stroke-width="3"/>
<path d="M67.2377 33.34V43H66.2577V35.286L62.8137 43H62.0997L58.6557 35.314V43H57.6757V33.34H58.7117L62.4497 41.712L66.1877 33.34H67.2377ZM75.9288 33.214L72.7928 39.192V43H71.8128V39.192L68.6488 33.214H69.7548L72.3028 38.296L74.8368 33.214H75.9288ZM86.413 43L83.991 38.912H82.185V43H81.205V33.214H84.145C85.237 33.214 86.063 33.4753 86.623 33.998C87.1923 34.5207 87.477 35.2067 87.477 36.056C87.477 36.7653 87.2716 37.372 86.861 37.876C86.4596 38.3707 85.8623 38.6927 85.069 38.842L87.589 43H86.413ZM82.185 38.114H84.159C84.9243 38.114 85.4983 37.9273 85.881 37.554C86.273 37.1807 86.469 36.6813 86.469 36.056C86.469 35.412 86.2823 34.9173 85.909 34.572C85.5356 34.2173 84.9476 34.04 84.145 34.04H82.185V38.114ZM96.3378 38.786C96.3378 39.122 96.3284 39.3787 96.3098 39.556H89.9678C89.9958 40.1347 90.1358 40.6293 90.3878 41.04C90.6398 41.4507 90.9711 41.7633 91.3818 41.978C91.7924 42.1833 92.2404 42.286 92.7258 42.286C93.3604 42.286 93.8924 42.132 94.3218 41.824C94.7604 41.516 95.0498 41.1007 95.1898 40.578H96.2258C96.0391 41.3247 95.6378 41.936 95.0218 42.412C94.4151 42.8787 93.6498 43.112 92.7258 43.112C92.0071 43.112 91.3631 42.9533 90.7938 42.636C90.2244 42.3093 89.7764 41.852 89.4498 41.264C89.1324 40.6667 88.9738 39.9713 88.9738 39.178C88.9738 38.3847 89.1324 37.6893 89.4498 37.092C89.7671 36.4947 90.2104 36.0373 90.7798 35.72C91.3491 35.4027 91.9978 35.244 92.7258 35.244C93.4538 35.244 94.0884 35.4027 94.6298 35.72C95.1804 36.0373 95.6004 36.4667 95.8898 37.008C96.1884 37.54 96.3378 38.1327 96.3378 38.786ZM95.3438 38.758C95.3531 38.1887 95.2364 37.7033 94.9938 37.302C94.7604 36.9007 94.4384 36.5973 94.0278 36.392C93.6171 36.1867 93.1691 36.084 92.6838 36.084C91.9558 36.084 91.3351 36.3173 90.8218 36.784C90.3084 37.2507 90.0238 37.9087 89.9678 38.758H95.3438ZM108.211 35.356L105.817 43H104.837L102.723 36.588L100.609 43H99.6147L97.2207 35.356H98.2147L100.119 42.006L102.261 35.356H103.241L105.355 42.02L107.245 35.356H108.211ZM109.099 39.164C109.099 38.38 109.253 37.694 109.561 37.106C109.878 36.5087 110.312 36.0513 110.863 35.734C111.423 35.4073 112.053 35.244 112.753 35.244C113.481 35.244 114.106 35.412 114.629 35.748C115.161 36.084 115.543 36.5133 115.777 37.036V35.356H116.757V43H115.777V41.306C115.534 41.8287 115.147 42.2627 114.615 42.608C114.092 42.944 113.467 43.112 112.739 43.112C112.048 43.112 111.423 42.9487 110.863 42.622C110.312 42.2953 109.878 41.8333 109.561 41.236C109.253 40.6387 109.099 39.948 109.099 39.164ZM115.777 39.178C115.777 38.562 115.651 38.0207 115.399 37.554C115.147 37.0873 114.801 36.728 114.363 36.476C113.933 36.224 113.457 36.098 112.935 36.098C112.393 36.098 111.908 36.2193 111.479 36.462C111.049 36.7047 110.709 37.0593 110.457 37.526C110.214 37.9833 110.093 38.5293 110.093 39.164C110.093 39.7893 110.214 40.34 110.457 40.816C110.709 41.2827 111.049 41.642 111.479 41.894C111.908 42.1367 112.393 42.258 112.935 42.258C113.457 42.258 113.933 42.132 114.363 41.88C114.801 41.628 115.147 41.2687 115.399 40.802C115.651 40.3353 115.777 39.794 115.777 39.178ZM119.974 36.714C120.189 36.238 120.515 35.8693 120.954 35.608C121.402 35.3467 121.948 35.216 122.592 35.216V36.238H122.326C121.617 36.238 121.047 36.4293 120.618 36.812C120.189 37.1947 119.974 37.834 119.974 38.73V43H118.994V35.356H119.974V36.714ZM123.618 39.164C123.618 38.38 123.777 37.694 124.094 37.106C124.412 36.5087 124.846 36.0513 125.396 35.734C125.956 35.4073 126.586 35.244 127.286 35.244C127.958 35.244 128.565 35.4073 129.106 35.734C129.648 36.0607 130.044 36.4853 130.296 37.008V32.64H131.276V43H130.296V41.292C130.063 41.824 129.68 42.2627 129.148 42.608C128.616 42.944 127.991 43.112 127.272 43.112C126.572 43.112 125.942 42.9487 125.382 42.622C124.832 42.2953 124.398 41.8333 124.08 41.236C123.772 40.6387 123.618 39.948 123.618 39.164ZM130.296 39.178C130.296 38.562 130.17 38.0207 129.918 37.554C129.666 37.0873 129.321 36.728 128.882 36.476C128.453 36.224 127.977 36.098 127.454 36.098C126.913 36.098 126.428 36.2193 125.998 36.462C125.569 36.7047 125.228 37.0593 124.976 37.526C124.734 37.9833 124.612 38.5293 124.612 39.164C124.612 39.7893 124.734 40.34 124.976 40.816C125.228 41.2827 125.569 41.642 125.998 41.894C126.428 42.1367 126.913 42.258 127.454 42.258C127.977 42.258 128.453 42.132 128.882 41.88C129.321 41.628 129.666 41.2687 129.918 40.802C130.17 40.3353 130.296 39.794 130.296 39.178ZM136.146 43.112C135.268 43.112 134.55 42.9113 133.99 42.51C133.439 42.0993 133.131 41.544 133.066 40.844H134.074C134.12 41.2733 134.321 41.6233 134.676 41.894C135.04 42.1553 135.525 42.286 136.132 42.286C136.664 42.286 137.079 42.16 137.378 41.908C137.686 41.656 137.84 41.3433 137.84 40.97C137.84 40.7087 137.756 40.494 137.588 40.326C137.42 40.158 137.205 40.0273 136.944 39.934C136.692 39.8313 136.346 39.724 135.908 39.612C135.338 39.4627 134.876 39.3133 134.522 39.164C134.167 39.0147 133.864 38.7953 133.612 38.506C133.369 38.2073 133.248 37.8107 133.248 37.316C133.248 36.9427 133.36 36.5973 133.584 36.28C133.808 35.9627 134.125 35.7107 134.536 35.524C134.946 35.3373 135.413 35.244 135.936 35.244C136.757 35.244 137.42 35.454 137.924 35.874C138.428 36.2847 138.698 36.854 138.736 37.582H137.756C137.728 37.134 137.55 36.7747 137.224 36.504C136.906 36.224 136.468 36.084 135.908 36.084C135.413 36.084 135.012 36.2007 134.704 36.434C134.396 36.6673 134.242 36.9567 134.242 37.302C134.242 37.6007 134.33 37.848 134.508 38.044C134.694 38.2307 134.923 38.38 135.194 38.492C135.464 38.5947 135.828 38.7113 136.286 38.842C136.836 38.9913 137.275 39.136 137.602 39.276C137.928 39.416 138.208 39.6213 138.442 39.892C138.675 40.1627 138.796 40.522 138.806 40.97C138.806 41.3807 138.694 41.7493 138.47 42.076C138.246 42.3933 137.933 42.6453 137.532 42.832C137.13 43.0187 136.668 43.112 136.146 43.112ZM145.472 42.202H148.986V43H144.492V33.214H145.472V42.202ZM150.875 33.914C150.679 33.914 150.511 33.844 150.371 33.704C150.231 33.564 150.161 33.3913 150.161 33.186C150.161 32.9807 150.231 32.8127 150.371 32.682C150.511 32.542 150.679 32.472 150.875 32.472C151.071 32.472 151.239 32.542 151.379 32.682C151.519 32.8127 151.589 32.9807 151.589 33.186C151.589 33.3913 151.519 33.564 151.379 33.704C151.239 33.844 151.071 33.914 150.875 33.914ZM151.365 35.356V43H150.385V35.356H151.365ZM156.216 43.112C155.339 43.112 154.62 42.9113 154.06 42.51C153.509 42.0993 153.201 41.544 153.136 40.844H154.144C154.191 41.2733 154.391 41.6233 154.746 41.894C155.11 42.1553 155.595 42.286 156.202 42.286C156.734 42.286 157.149 42.16 157.448 41.908C157.756 41.656 157.91 41.3433 157.91 40.97C157.91 40.7087 157.826 40.494 157.658 40.326C157.49 40.158 157.275 40.0273 157.014 39.934C156.762 39.8313 156.417 39.724 155.978 39.612C155.409 39.4627 154.947 39.3133 154.592 39.164C154.237 39.0147 153.934 38.7953 153.682 38.506C153.439 38.2073 153.318 37.8107 153.318 37.316C153.318 36.9427 153.43 36.5973 153.654 36.28C153.878 35.9627 154.195 35.7107 154.606 35.524C155.017 35.3373 155.483 35.244 156.006 35.244C156.827 35.244 157.49 35.454 157.994 35.874C158.498 36.2847 158.769 36.854 158.806 37.582H157.826C157.798 37.134 157.621 36.7747 157.294 36.504C156.977 36.224 156.538 36.084 155.978 36.084C155.483 36.084 155.082 36.2007 154.774 36.434C154.466 36.6673 154.312 36.9567 154.312 37.302C154.312 37.6007 154.401 37.848 154.578 38.044C154.765 38.2307 154.993 38.38 155.264 38.492C155.535 38.5947 155.899 38.7113 156.356 38.842C156.907 38.9913 157.345 39.136 157.672 39.276C157.999 39.416 158.279 39.6213 158.512 39.892C158.745 40.1627 158.867 40.522 158.876 40.97C158.876 41.3807 158.764 41.7493 158.54 42.076C158.316 42.3933 158.003 42.6453 157.602 42.832C157.201 43.0187 156.739 43.112 156.216 43.112ZM161.995 36.182V40.928C161.995 41.3947 162.083 41.7167 162.261 41.894C162.438 42.0713 162.751 42.16 163.199 42.16H164.095V43H163.045C162.354 43 161.841 42.8413 161.505 42.524C161.169 42.1973 161.001 41.6653 161.001 40.928V36.182H159.937V35.356H161.001V33.438H161.995V35.356H164.095V36.182H161.995ZM166.201 33.914C166.005 33.914 165.837 33.844 165.697 33.704C165.557 33.564 165.487 33.3913 165.487 33.186C165.487 32.9807 165.557 32.8127 165.697 32.682C165.837 32.542 166.005 32.472 166.201 32.472C166.397 32.472 166.565 32.542 166.705 32.682C166.845 32.8127 166.915 32.9807 166.915 33.186C166.915 33.3913 166.845 33.564 166.705 33.704C166.565 33.844 166.397 33.914 166.201 33.914ZM166.691 35.356V43H165.711V35.356H166.691ZM172.494 35.216C173.409 35.216 174.155 35.5007 174.734 36.07C175.313 36.63 175.602 37.4467 175.602 38.52V43H174.636V38.632C174.636 37.8013 174.426 37.1667 174.006 36.728C173.595 36.2893 173.031 36.07 172.312 36.07C171.575 36.07 170.987 36.3033 170.548 36.77C170.109 37.2367 169.89 37.9227 169.89 38.828V43H168.91V35.356H169.89V36.658C170.133 36.1913 170.483 35.8367 170.94 35.594C171.397 35.342 171.915 35.216 172.494 35.216ZM180.975 35.244C181.694 35.244 182.319 35.412 182.851 35.748C183.383 36.084 183.766 36.5087 183.999 37.022V35.356H184.979V43.196C184.979 43.896 184.825 44.5167 184.517 45.058C184.219 45.5993 183.799 46.0147 183.257 46.304C182.716 46.6027 182.1 46.752 181.409 46.752C180.429 46.752 179.613 46.5187 178.959 46.052C178.315 45.5853 177.914 44.9507 177.755 44.148H178.721C178.889 44.68 179.207 45.1047 179.673 45.422C180.149 45.7393 180.728 45.898 181.409 45.898C181.904 45.898 182.347 45.7907 182.739 45.576C183.131 45.3707 183.439 45.0627 183.663 44.652C183.887 44.2413 183.999 43.756 183.999 43.196V41.306C183.757 41.8287 183.369 42.2627 182.837 42.608C182.315 42.944 181.694 43.112 180.975 43.112C180.275 43.112 179.645 42.9487 179.085 42.622C178.535 42.2953 178.101 41.8333 177.783 41.236C177.475 40.6387 177.321 39.948 177.321 39.164C177.321 38.38 177.475 37.694 177.783 37.106C178.101 36.5087 178.535 36.0513 179.085 35.734C179.645 35.4073 180.275 35.244 180.975 35.244ZM183.999 39.178C183.999 38.562 183.873 38.0207 183.621 37.554C183.369 37.0873 183.024 36.728 182.585 36.476C182.156 36.224 181.68 36.098 181.157 36.098C180.616 36.098 180.131 36.2193 179.701 36.462C179.272 36.7047 178.931 37.0593 178.679 37.526C178.437 37.9833 178.315 38.5293 178.315 39.164C178.315 39.7893 178.437 40.34 178.679 40.816C178.931 41.2827 179.272 41.642 179.701 41.894C180.131 42.1367 180.616 42.258 181.157 42.258C181.68 42.258 182.156 42.132 182.585 41.88C183.024 41.628 183.369 41.2687 183.621 40.802C183.873 40.3353 183.999 39.794 183.999 39.178ZM197.316 36.028C197.316 36.868 197.041 37.5447 196.49 38.058C195.94 38.5713 195.114 38.828 194.012 38.828H192.038V43H191.058V33.214H194.012C195.104 33.214 195.926 33.4707 196.476 33.984C197.036 34.4973 197.316 35.1787 197.316 36.028ZM194.012 37.988C195.543 37.988 196.308 37.3347 196.308 36.028C196.308 35.3747 196.126 34.88 195.762 34.544C195.398 34.208 194.815 34.04 194.012 34.04H192.038V37.988H194.012ZM198.513 39.164C198.513 38.38 198.667 37.694 198.975 37.106C199.292 36.5087 199.726 36.0513 200.277 35.734C200.837 35.4073 201.467 35.244 202.167 35.244C202.895 35.244 203.52 35.412 204.043 35.748C204.575 36.084 204.957 36.5133 205.191 37.036V35.356H206.171V43H205.191V41.306C204.948 41.8287 204.561 42.2627 204.029 42.608C203.506 42.944 202.881 43.112 202.153 43.112C201.462 43.112 200.837 42.9487 200.277 42.622C199.726 42.2953 199.292 41.8333 198.975 41.236C198.667 40.6387 198.513 39.948 198.513 39.164ZM205.191 39.178C205.191 38.562 205.065 38.0207 204.813 37.554C204.561 37.0873 204.215 36.728 203.777 36.476C203.347 36.224 202.871 36.098 202.349 36.098C201.807 36.098 201.322 36.2193 200.893 36.462C200.463 36.7047 200.123 37.0593 199.871 37.526C199.628 37.9833 199.507 38.5293 199.507 39.164C199.507 39.7893 199.628 40.34 199.871 40.816C200.123 41.2827 200.463 41.642 200.893 41.894C201.322 42.1367 201.807 42.258 202.349 42.258C202.871 42.258 203.347 42.132 203.777 41.88C204.215 41.628 204.561 41.2687 204.813 40.802C205.065 40.3353 205.191 39.794 205.191 39.178ZM211.614 35.244C212.333 35.244 212.958 35.412 213.49 35.748C214.022 36.084 214.405 36.5087 214.638 37.022V35.356H215.618V43.196C215.618 43.896 215.464 44.5167 215.156 45.058C214.857 45.5993 214.437 46.0147 213.896 46.304C213.355 46.6027 212.739 46.752 212.048 46.752C211.068 46.752 210.251 46.5187 209.598 46.052C208.954 45.5853 208.553 44.9507 208.394 44.148H209.36C209.528 44.68 209.845 45.1047 210.312 45.422C210.788 45.7393 211.367 45.898 212.048 45.898C212.543 45.898 212.986 45.7907 213.378 45.576C213.77 45.3707 214.078 45.0627 214.302 44.652C214.526 44.2413 214.638 43.756 214.638 43.196V41.306C214.395 41.8287 214.008 42.2627 213.476 42.608C212.953 42.944 212.333 43.112 211.614 43.112C210.914 43.112 210.284 42.9487 209.724 42.622C209.173 42.2953 208.739 41.8333 208.422 41.236C208.114 40.6387 207.96 39.948 207.96 39.164C207.96 38.38 208.114 37.694 208.422 37.106C208.739 36.5087 209.173 36.0513 209.724 35.734C210.284 35.4073 210.914 35.244 211.614 35.244ZM214.638 39.178C214.638 38.562 214.512 38.0207 214.26 37.554C214.008 37.0873 213.663 36.728 213.224 36.476C212.795 36.224 212.319 36.098 211.796 36.098C211.255 36.098 210.769 36.2193 210.34 36.462C209.911 36.7047 209.57 37.0593 209.318 37.526C209.075 37.9833 208.954 38.5293 208.954 39.164C208.954 39.7893 209.075 40.34 209.318 40.816C209.57 41.2827 209.911 41.642 210.34 41.894C210.769 42.1367 211.255 42.258 211.796 42.258C212.319 42.258 212.795 42.132 213.224 41.88C213.663 41.628 214.008 41.2687 214.26 40.802C214.512 40.3353 214.638 39.794 214.638 39.178ZM224.771 38.786C224.771 39.122 224.762 39.3787 224.743 39.556H218.401C218.429 40.1347 218.569 40.6293 218.821 41.04C219.073 41.4507 219.405 41.7633 219.815 41.978C220.226 42.1833 220.674 42.286 221.159 42.286C221.794 42.286 222.326 42.132 222.755 41.824C223.194 41.516 223.483 41.1007 223.623 40.578H224.659C224.473 41.3247 224.071 41.936 223.455 42.412C222.849 42.8787 222.083 43.112 221.159 43.112C220.441 43.112 219.797 42.9533 219.227 42.636C218.658 42.3093 218.21 41.852 217.883 41.264C217.566 40.6667 217.407 39.9713 217.407 39.178C217.407 38.3847 217.566 37.6893 217.883 37.092C218.201 36.4947 218.644 36.0373 219.213 35.72C219.783 35.4027 220.431 35.244 221.159 35.244C221.887 35.244 222.522 35.4027 223.063 35.72C223.614 36.0373 224.034 36.4667 224.323 37.008C224.622 37.54 224.771 38.1327 224.771 38.786ZM223.777 38.758C223.787 38.1887 223.67 37.7033 223.427 37.302C223.194 36.9007 222.872 36.5973 222.461 36.392C222.051 36.1867 221.603 36.084 221.117 36.084C220.389 36.084 219.769 36.3173 219.255 36.784C218.742 37.2507 218.457 37.9087 218.401 38.758H223.777Z" fill="black"/>
<rect x="1.5" y="69.5" width="279" height="77" fill="#DFDFCE"/>
<rect x="1.5" y="69.5" width="279" height="77" stroke="#96945C" stroke-width="3"/>
<path d="M95.6795 111.012V109.472L100.257 102.92H102.539V109.304H103.771V111.012H102.539V113H100.579V111.012H95.6795ZM100.705 105.02L97.8355 109.304H100.705V105.02ZM106.111 113.098C105.757 113.098 105.463 112.991 105.229 112.776C105.005 112.552 104.893 112.277 104.893 111.95C104.893 111.623 105.005 111.353 105.229 111.138C105.463 110.914 105.757 110.802 106.111 110.802C106.457 110.802 106.741 110.914 106.965 111.138C107.189 111.353 107.301 111.623 107.301 111.95C107.301 112.277 107.189 112.552 106.965 112.776C106.741 112.991 106.457 113.098 106.111 113.098ZM109.272 110.788C110.168 110.041 110.882 109.421 111.414 108.926C111.946 108.422 112.389 107.899 112.744 107.358C113.099 106.817 113.276 106.285 113.276 105.762C113.276 105.286 113.164 104.913 112.94 104.642C112.716 104.371 112.371 104.236 111.904 104.236C111.437 104.236 111.078 104.395 110.826 104.712C110.574 105.02 110.443 105.445 110.434 105.986H108.53C108.567 104.866 108.899 104.017 109.524 103.438C110.159 102.859 110.961 102.57 111.932 102.57C112.996 102.57 113.813 102.855 114.382 103.424C114.951 103.984 115.236 104.726 115.236 105.65C115.236 106.378 115.04 107.073 114.648 107.736C114.256 108.399 113.808 108.977 113.304 109.472C112.8 109.957 112.142 110.545 111.33 111.236H115.46V112.86H108.544V111.404L109.272 110.788ZM129.887 105.132C130.839 105.132 131.604 105.426 132.183 106.014C132.771 106.593 133.065 107.405 133.065 108.45V113H131.105V108.716C131.105 108.109 130.951 107.647 130.643 107.33C130.335 107.003 129.915 106.84 129.383 106.84C128.851 106.84 128.426 107.003 128.109 107.33C127.801 107.647 127.647 108.109 127.647 108.716V113H125.687V108.716C125.687 108.109 125.533 107.647 125.225 107.33C124.917 107.003 124.497 106.84 123.965 106.84C123.424 106.84 122.994 107.003 122.677 107.33C122.369 107.647 122.215 108.109 122.215 108.716V113H120.255V105.244H122.215V106.182C122.467 105.855 122.789 105.599 123.181 105.412C123.582 105.225 124.021 105.132 124.497 105.132C125.104 105.132 125.645 105.263 126.121 105.524C126.597 105.776 126.966 106.14 127.227 106.616C127.479 106.168 127.843 105.809 128.319 105.538C128.804 105.267 129.327 105.132 129.887 105.132ZM135.919 104.32C135.574 104.32 135.284 104.213 135.051 103.998C134.827 103.774 134.715 103.499 134.715 103.172C134.715 102.845 134.827 102.575 135.051 102.36C135.284 102.136 135.574 102.024 135.919 102.024C136.264 102.024 136.549 102.136 136.773 102.36C137.006 102.575 137.123 102.845 137.123 103.172C137.123 103.499 137.006 103.774 136.773 103.998C136.549 104.213 136.264 104.32 135.919 104.32ZM136.885 105.244V113H134.925V105.244H136.885ZM142.265 113.126C141.519 113.126 140.847 112.963 140.249 112.636C139.652 112.3 139.181 111.829 138.835 111.222C138.499 110.615 138.331 109.915 138.331 109.122C138.331 108.329 138.504 107.629 138.849 107.022C139.204 106.415 139.685 105.949 140.291 105.622C140.898 105.286 141.575 105.118 142.321 105.118C143.068 105.118 143.745 105.286 144.351 105.622C144.958 105.949 145.434 106.415 145.779 107.022C146.134 107.629 146.311 108.329 146.311 109.122C146.311 109.915 146.129 110.615 145.765 111.222C145.411 111.829 144.925 112.3 144.309 112.636C143.703 112.963 143.021 113.126 142.265 113.126ZM142.265 111.418C142.62 111.418 142.951 111.334 143.259 111.166C143.577 110.989 143.829 110.727 144.015 110.382C144.202 110.037 144.295 109.617 144.295 109.122C144.295 108.385 144.099 107.82 143.707 107.428C143.325 107.027 142.853 106.826 142.293 106.826C141.733 106.826 141.262 107.027 140.879 107.428C140.506 107.82 140.319 108.385 140.319 109.122C140.319 109.859 140.501 110.429 140.865 110.83C141.239 111.222 141.705 111.418 142.265 111.418ZM154.319 111.194L156.279 105.244H158.365L155.495 113H153.115L150.259 105.244H152.359L154.319 111.194ZM160.46 104.32C160.115 104.32 159.825 104.213 159.592 103.998C159.368 103.774 159.256 103.499 159.256 103.172C159.256 102.845 159.368 102.575 159.592 102.36C159.825 102.136 160.115 102.024 160.46 102.024C160.805 102.024 161.09 102.136 161.314 102.36C161.547 102.575 161.664 102.845 161.664 103.172C161.664 103.499 161.547 103.774 161.314 103.998C161.09 104.213 160.805 104.32 160.46 104.32ZM161.426 105.244V113H159.466V105.244H161.426ZM166.33 113.126C165.696 113.126 165.126 113.014 164.622 112.79C164.118 112.557 163.717 112.244 163.418 111.852C163.129 111.46 162.97 111.026 162.942 110.55H164.916C164.954 110.849 165.098 111.096 165.35 111.292C165.612 111.488 165.934 111.586 166.316 111.586C166.69 111.586 166.979 111.511 167.184 111.362C167.399 111.213 167.506 111.021 167.506 110.788C167.506 110.536 167.376 110.349 167.114 110.228C166.862 110.097 166.456 109.957 165.896 109.808C165.318 109.668 164.842 109.523 164.468 109.374C164.104 109.225 163.787 108.996 163.516 108.688C163.255 108.38 163.124 107.965 163.124 107.442C163.124 107.013 163.246 106.621 163.488 106.266C163.74 105.911 164.095 105.631 164.552 105.426C165.019 105.221 165.565 105.118 166.19 105.118C167.114 105.118 167.852 105.351 168.402 105.818C168.953 106.275 169.256 106.896 169.312 107.68H167.436C167.408 107.372 167.278 107.129 167.044 106.952C166.82 106.765 166.517 106.672 166.134 106.672C165.78 106.672 165.504 106.737 165.308 106.868C165.122 106.999 165.028 107.181 165.028 107.414C165.028 107.675 165.159 107.876 165.42 108.016C165.682 108.147 166.088 108.282 166.638 108.422C167.198 108.562 167.66 108.707 168.024 108.856C168.388 109.005 168.701 109.239 168.962 109.556C169.233 109.864 169.373 110.275 169.382 110.788C169.382 111.236 169.256 111.637 169.004 111.992C168.762 112.347 168.407 112.627 167.94 112.832C167.483 113.028 166.946 113.126 166.33 113.126ZM171.985 104.32C171.64 104.32 171.351 104.213 171.117 103.998C170.893 103.774 170.781 103.499 170.781 103.172C170.781 102.845 170.893 102.575 171.117 102.36C171.351 102.136 171.64 102.024 171.985 102.024C172.331 102.024 172.615 102.136 172.839 102.36C173.073 102.575 173.189 102.845 173.189 103.172C173.189 103.499 173.073 103.774 172.839 103.998C172.615 104.213 172.331 104.32 171.985 104.32ZM172.951 105.244V113H170.991V105.244H172.951ZM177.17 106.854V110.606C177.17 110.867 177.231 111.059 177.352 111.18C177.483 111.292 177.697 111.348 177.996 111.348H178.906V113H177.674C176.022 113 175.196 112.197 175.196 110.592V106.854H174.272V105.244H175.196V103.326H177.17V105.244H178.906V106.854H177.17ZM183.284 113.126C182.649 113.126 182.08 113.014 181.576 112.79C181.072 112.557 180.67 112.244 180.372 111.852C180.082 111.46 179.924 111.026 179.896 110.55H181.87C181.907 110.849 182.052 111.096 182.304 111.292C182.565 111.488 182.887 111.586 183.27 111.586C183.643 111.586 183.932 111.511 184.138 111.362C184.352 111.213 184.46 111.021 184.46 110.788C184.46 110.536 184.329 110.349 184.068 110.228C183.816 110.097 183.41 109.957 182.85 109.808C182.271 109.668 181.795 109.523 181.422 109.374C181.058 109.225 180.74 108.996 180.47 108.688C180.208 108.38 180.078 107.965 180.078 107.442C180.078 107.013 180.199 106.621 180.442 106.266C180.694 105.911 181.048 105.631 181.506 105.426C181.972 105.221 182.518 105.118 183.144 105.118C184.068 105.118 184.805 105.351 185.356 105.818C185.906 106.275 186.21 106.896 186.266 107.68H184.39C184.362 107.372 184.231 107.129 183.998 106.952C183.774 106.765 183.47 106.672 183.088 106.672C182.733 106.672 182.458 106.737 182.262 106.868C182.075 106.999 181.982 107.181 181.982 107.414C181.982 107.675 182.112 107.876 182.374 108.016C182.635 108.147 183.041 108.282 183.592 108.422C184.152 108.562 184.614 108.707 184.978 108.856C185.342 109.005 185.654 109.239 185.916 109.556C186.186 109.864 186.326 110.275 186.336 110.788C186.336 111.236 186.21 111.637 185.958 111.992C185.715 112.347 185.36 112.627 184.894 112.832C184.436 113.028 183.9 113.126 183.284 113.126Z" fill="black"/>
<rect x="307.5" y="1.5" width="279" height="145" fill="white"/>
<rect x="307.5" y="1.5" width="279" height="145" stroke="#96945C" stroke-width="3"/>
<path d="M390.517 38.1C390.517 37.1387 390.727 36.28 391.147 35.524C391.567 34.7587 392.141 34.166 392.869 33.746C393.597 33.3167 394.409 33.102 395.305 33.102C396.397 33.102 397.33 33.3633 398.105 33.886C398.889 34.3993 399.458 35.1273 399.813 36.07H398.665C398.385 35.4073 397.955 34.8893 397.377 34.516C396.807 34.1427 396.117 33.956 395.305 33.956C394.586 33.956 393.937 34.124 393.359 34.46C392.789 34.796 392.341 35.2813 392.015 35.916C391.688 36.5413 391.525 37.2693 391.525 38.1C391.525 38.9307 391.688 39.6587 392.015 40.284C392.341 40.9093 392.789 41.39 393.359 41.726C393.937 42.062 394.586 42.23 395.305 42.23C396.117 42.23 396.807 42.048 397.377 41.684C397.955 41.3107 398.385 40.7973 398.665 40.144H399.813C399.458 41.0773 398.889 41.8007 398.105 42.314C397.321 42.8273 396.387 43.084 395.305 43.084C394.409 43.084 393.597 42.874 392.869 42.454C392.141 42.0247 391.567 41.432 391.147 40.676C390.727 39.92 390.517 39.0613 390.517 38.1ZM401.318 39.164C401.318 38.38 401.472 37.694 401.78 37.106C402.097 36.5087 402.531 36.0513 403.082 35.734C403.642 35.4073 404.272 35.244 404.972 35.244C405.7 35.244 406.325 35.412 406.848 35.748C407.38 36.084 407.762 36.5133 407.996 37.036V35.356H408.976V43H407.996V41.306C407.753 41.8287 407.366 42.2627 406.834 42.608C406.311 42.944 405.686 43.112 404.958 43.112C404.267 43.112 403.642 42.9487 403.082 42.622C402.531 42.2953 402.097 41.8333 401.78 41.236C401.472 40.6387 401.318 39.948 401.318 39.164ZM407.996 39.178C407.996 38.562 407.87 38.0207 407.618 37.554C407.366 37.0873 407.02 36.728 406.582 36.476C406.152 36.224 405.676 36.098 405.154 36.098C404.612 36.098 404.127 36.2193 403.698 36.462C403.268 36.7047 402.928 37.0593 402.676 37.526C402.433 37.9833 402.312 38.5293 402.312 39.164C402.312 39.7893 402.433 40.34 402.676 40.816C402.928 41.2827 403.268 41.642 403.698 41.894C404.127 42.1367 404.612 42.258 405.154 42.258C405.676 42.258 406.152 42.132 406.582 41.88C407.02 41.628 407.366 41.2687 407.618 40.802C407.87 40.3353 407.996 39.794 407.996 39.178ZM420.313 35.216C421.209 35.216 421.937 35.5007 422.497 36.07C423.066 36.63 423.351 37.4467 423.351 38.52V43H422.385V38.632C422.385 37.8013 422.184 37.1667 421.783 36.728C421.381 36.2893 420.835 36.07 420.145 36.07C419.426 36.07 418.852 36.308 418.423 36.784C417.993 37.26 417.779 37.9507 417.779 38.856V43H416.813V38.632C416.813 37.8013 416.612 37.1667 416.211 36.728C415.809 36.2893 415.259 36.07 414.559 36.07C413.84 36.07 413.266 36.308 412.837 36.784C412.407 37.26 412.193 37.9507 412.193 38.856V43H411.213V35.356H412.193V36.672C412.435 36.196 412.781 35.8367 413.229 35.594C413.677 35.342 414.176 35.216 414.727 35.216C415.389 35.216 415.968 35.3747 416.463 35.692C416.967 36.0093 417.331 36.476 417.555 37.092C417.76 36.4853 418.11 36.0233 418.605 35.706C419.109 35.3793 419.678 35.216 420.313 35.216ZM426.493 37.036C426.736 36.5227 427.119 36.098 427.641 35.762C428.173 35.4167 428.803 35.244 429.531 35.244C430.222 35.244 430.843 35.4073 431.393 35.734C431.953 36.0513 432.387 36.5087 432.695 37.106C433.013 37.694 433.171 38.38 433.171 39.164C433.171 39.948 433.013 40.6387 432.695 41.236C432.387 41.8333 431.953 42.2953 431.393 42.622C430.843 42.9487 430.222 43.112 429.531 43.112C428.813 43.112 428.187 42.944 427.655 42.608C427.123 42.2627 426.736 41.8333 426.493 41.32V46.612H425.527V35.356H426.493V37.036ZM432.177 39.164C432.177 38.5293 432.051 37.9833 431.799 37.526C431.557 37.0593 431.221 36.7047 430.791 36.462C430.362 36.2193 429.877 36.098 429.335 36.098C428.813 36.098 428.332 36.224 427.893 36.476C427.464 36.728 427.123 37.0873 426.871 37.554C426.619 38.0207 426.493 38.562 426.493 39.178C426.493 39.794 426.619 40.3353 426.871 40.802C427.123 41.2687 427.464 41.628 427.893 41.88C428.332 42.132 428.813 42.258 429.335 42.258C429.877 42.258 430.362 42.1367 430.791 41.894C431.221 41.642 431.557 41.2827 431.799 40.816C432.051 40.34 432.177 39.7893 432.177 39.164ZM434.526 39.164C434.526 38.38 434.68 37.694 434.988 37.106C435.306 36.5087 435.74 36.0513 436.29 35.734C436.85 35.4073 437.48 35.244 438.18 35.244C438.908 35.244 439.534 35.412 440.056 35.748C440.588 36.084 440.971 36.5133 441.204 37.036V35.356H442.184V43H441.204V41.306C440.962 41.8287 440.574 42.2627 440.042 42.608C439.52 42.944 438.894 43.112 438.166 43.112C437.476 43.112 436.85 42.9487 436.29 42.622C435.74 42.2953 435.306 41.8333 434.988 41.236C434.68 40.6387 434.526 39.948 434.526 39.164ZM441.204 39.178C441.204 38.562 441.078 38.0207 440.826 37.554C440.574 37.0873 440.229 36.728 439.79 36.476C439.361 36.224 438.885 36.098 438.362 36.098C437.821 36.098 437.336 36.2193 436.906 36.462C436.477 36.7047 436.136 37.0593 435.884 37.526C435.642 37.9833 435.52 38.5293 435.52 39.164C435.52 39.7893 435.642 40.34 435.884 40.816C436.136 41.2827 436.477 41.642 436.906 41.894C437.336 42.1367 437.821 42.258 438.362 42.258C438.885 42.258 439.361 42.132 439.79 41.88C440.229 41.628 440.574 41.2687 440.826 40.802C441.078 40.3353 441.204 39.794 441.204 39.178ZM444.912 33.914C444.716 33.914 444.548 33.844 444.408 33.704C444.268 33.564 444.198 33.3913 444.198 33.186C444.198 32.9807 444.268 32.8127 444.408 32.682C444.548 32.542 444.716 32.472 444.912 32.472C445.108 32.472 445.276 32.542 445.416 32.682C445.556 32.8127 445.626 32.9807 445.626 33.186C445.626 33.3913 445.556 33.564 445.416 33.704C445.276 33.844 445.108 33.914 444.912 33.914ZM445.402 35.356V43H444.422V35.356H445.402ZM450.827 35.244C451.546 35.244 452.171 35.412 452.703 35.748C453.235 36.084 453.618 36.5087 453.851 37.022V35.356H454.831V43.196C454.831 43.896 454.677 44.5167 454.369 45.058C454.07 45.5993 453.65 46.0147 453.109 46.304C452.568 46.6027 451.952 46.752 451.261 46.752C450.281 46.752 449.464 46.5187 448.811 46.052C448.167 45.5853 447.766 44.9507 447.607 44.148H448.573C448.741 44.68 449.058 45.1047 449.525 45.422C450.001 45.7393 450.58 45.898 451.261 45.898C451.756 45.898 452.199 45.7907 452.591 45.576C452.983 45.3707 453.291 45.0627 453.515 44.652C453.739 44.2413 453.851 43.756 453.851 43.196V41.306C453.608 41.8287 453.221 42.2627 452.689 42.608C452.166 42.944 451.546 43.112 450.827 43.112C450.127 43.112 449.497 42.9487 448.937 42.622C448.386 42.2953 447.952 41.8333 447.635 41.236C447.327 40.6387 447.173 39.948 447.173 39.164C447.173 38.38 447.327 37.694 447.635 37.106C447.952 36.5087 448.386 36.0513 448.937 35.734C449.497 35.4073 450.127 35.244 450.827 35.244ZM453.851 39.178C453.851 38.562 453.725 38.0207 453.473 37.554C453.221 37.0873 452.876 36.728 452.437 36.476C452.008 36.224 451.532 36.098 451.009 36.098C450.468 36.098 449.982 36.2193 449.553 36.462C449.124 36.7047 448.783 37.0593 448.531 37.526C448.288 37.9833 448.167 38.5293 448.167 39.164C448.167 39.7893 448.288 40.34 448.531 40.816C448.783 41.2827 449.124 41.642 449.553 41.894C449.982 42.1367 450.468 42.258 451.009 42.258C451.532 42.258 452.008 42.132 452.437 41.88C452.876 41.628 453.221 41.2687 453.473 40.802C453.725 40.3353 453.851 39.794 453.851 39.178ZM460.652 35.216C461.567 35.216 462.314 35.5007 462.892 36.07C463.471 36.63 463.76 37.4467 463.76 38.52V43H462.794V38.632C462.794 37.8013 462.584 37.1667 462.164 36.728C461.754 36.2893 461.189 36.07 460.47 36.07C459.733 36.07 459.145 36.3033 458.706 36.77C458.268 37.2367 458.048 37.9227 458.048 38.828V43H457.068V35.356H458.048V36.658C458.291 36.1913 458.641 35.8367 459.098 35.594C459.556 35.342 460.074 35.216 460.652 35.216ZM476.027 36.028C476.027 36.868 475.752 37.5447 475.201 38.058C474.651 38.5713 473.825 38.828 472.723 38.828H470.749V43H469.769V33.214H472.723C473.815 33.214 474.637 33.4707 475.187 33.984C475.747 34.4973 476.027 35.1787 476.027 36.028ZM472.723 37.988C474.254 37.988 475.019 37.3347 475.019 36.028C475.019 35.3747 474.837 34.88 474.473 34.544C474.109 34.208 473.526 34.04 472.723 34.04H470.749V37.988H472.723ZM477.224 39.164C477.224 38.38 477.378 37.694 477.686 37.106C478.003 36.5087 478.437 36.0513 478.988 35.734C479.548 35.4073 480.178 35.244 480.878 35.244C481.606 35.244 482.231 35.412 482.754 35.748C483.286 36.084 483.668 36.5133 483.902 37.036V35.356H484.882V43H483.902V41.306C483.659 41.8287 483.272 42.2627 482.74 42.608C482.217 42.944 481.592 43.112 480.864 43.112C480.173 43.112 479.548 42.9487 478.988 42.622C478.437 42.2953 478.003 41.8333 477.686 41.236C477.378 40.6387 477.224 39.948 477.224 39.164ZM483.902 39.178C483.902 38.562 483.776 38.0207 483.524 37.554C483.272 37.0873 482.926 36.728 482.488 36.476C482.058 36.224 481.582 36.098 481.06 36.098C480.518 36.098 480.033 36.2193 479.604 36.462C479.174 36.7047 478.834 37.0593 478.582 37.526C478.339 37.9833 478.218 38.5293 478.218 39.164C478.218 39.7893 478.339 40.34 478.582 40.816C478.834 41.2827 479.174 41.642 479.604 41.894C480.033 42.1367 480.518 42.258 481.06 42.258C481.582 42.258 482.058 42.132 482.488 41.88C482.926 41.628 483.272 41.2687 483.524 40.802C483.776 40.3353 483.902 39.794 483.902 39.178ZM490.325 35.244C491.044 35.244 491.669 35.412 492.201 35.748C492.733 36.084 493.116 36.5087 493.349 37.022V35.356H494.329V43.196C494.329 43.896 494.175 44.5167 493.867 45.058C493.568 45.5993 493.148 46.0147 492.607 46.304C492.066 46.6027 491.45 46.752 490.759 46.752C489.779 46.752 488.962 46.5187 488.309 46.052C487.665 45.5853 487.264 44.9507 487.105 44.148H488.071C488.239 44.68 488.556 45.1047 489.023 45.422C489.499 45.7393 490.078 45.898 490.759 45.898C491.254 45.898 491.697 45.7907 492.089 45.576C492.481 45.3707 492.789 45.0627 493.013 44.652C493.237 44.2413 493.349 43.756 493.349 43.196V41.306C493.106 41.8287 492.719 42.2627 492.187 42.608C491.664 42.944 491.044 43.112 490.325 43.112C489.625 43.112 488.995 42.9487 488.435 42.622C487.884 42.2953 487.45 41.8333 487.133 41.236C486.825 40.6387 486.671 39.948 486.671 39.164C486.671 38.38 486.825 37.694 487.133 37.106C487.45 36.5087 487.884 36.0513 488.435 35.734C488.995 35.4073 489.625 35.244 490.325 35.244ZM493.349 39.178C493.349 38.562 493.223 38.0207 492.971 37.554C492.719 37.0873 492.374 36.728 491.935 36.476C491.506 36.224 491.03 36.098 490.507 36.098C489.966 36.098 489.48 36.2193 489.051 36.462C488.622 36.7047 488.281 37.0593 488.029 37.526C487.786 37.9833 487.665 38.5293 487.665 39.164C487.665 39.7893 487.786 40.34 488.029 40.816C488.281 41.2827 488.622 41.642 489.051 41.894C489.48 42.1367 489.966 42.258 490.507 42.258C491.03 42.258 491.506 42.132 491.935 41.88C492.374 41.628 492.719 41.2687 492.971 40.802C493.223 40.3353 493.349 39.794 493.349 39.178ZM503.482 38.786C503.482 39.122 503.473 39.3787 503.454 39.556H497.112C497.14 40.1347 497.28 40.6293 497.532 41.04C497.784 41.4507 498.116 41.7633 498.526 41.978C498.937 42.1833 499.385 42.286 499.87 42.286C500.505 42.286 501.037 42.132 501.466 41.824C501.905 41.516 502.194 41.1007 502.334 40.578H503.37C503.184 41.3247 502.782 41.936 502.166 42.412C501.56 42.8787 500.794 43.112 499.87 43.112C499.152 43.112 498.508 42.9533 497.938 42.636C497.369 42.3093 496.921 41.852 496.594 41.264C496.277 40.6667 496.118 39.9713 496.118 39.178C496.118 38.3847 496.277 37.6893 496.594 37.092C496.912 36.4947 497.355 36.0373 497.924 35.72C498.494 35.4027 499.142 35.244 499.87 35.244C500.598 35.244 501.233 35.4027 501.774 35.72C502.325 36.0373 502.745 36.4667 503.034 37.008C503.333 37.54 503.482 38.1327 503.482 38.786ZM502.488 38.758C502.498 38.1887 502.381 37.7033 502.138 37.302C501.905 36.9007 501.583 36.5973 501.172 36.392C500.762 36.1867 500.314 36.084 499.828 36.084C499.1 36.084 498.48 36.3173 497.966 36.784C497.453 37.2507 497.168 37.9087 497.112 38.758H502.488Z" fill="black"/>
<rect x="307.5" y="69.5" width="279" height="77" fill="#DFDFCE"/>
<rect x="307.5" y="69.5" width="279" height="77" stroke="#96945C" stroke-width="3"/>
<path d="M405.101 104.6V102.794H408.475V113H406.459V104.6H405.101ZM411.503 113.098C411.148 113.098 410.854 112.991 410.621 112.776C410.397 112.552 410.285 112.277 410.285 111.95C410.285 111.623 410.397 111.353 410.621 111.138C410.854 110.914 411.148 110.802 411.503 110.802C411.848 110.802 412.133 110.914 412.357 111.138C412.581 111.353 412.693 111.623 412.693 111.95C412.693 112.277 412.581 112.552 412.357 112.776C412.133 112.991 411.848 113.098 411.503 113.098ZM413.81 104.6V102.794H417.184V113H415.168V104.6H413.81ZM432.312 105.132C433.264 105.132 434.029 105.426 434.608 106.014C435.196 106.593 435.49 107.405 435.49 108.45V113H433.53V108.716C433.53 108.109 433.376 107.647 433.068 107.33C432.76 107.003 432.34 106.84 431.808 106.84C431.276 106.84 430.851 107.003 430.534 107.33C430.226 107.647 430.072 108.109 430.072 108.716V113H428.112V108.716C428.112 108.109 427.958 107.647 427.65 107.33C427.342 107.003 426.922 106.84 426.39 106.84C425.849 106.84 425.419 107.003 425.102 107.33C424.794 107.647 424.64 108.109 424.64 108.716V113H422.68V105.244H424.64V106.182C424.892 105.855 425.214 105.599 425.606 105.412C426.007 105.225 426.446 105.132 426.922 105.132C427.529 105.132 428.07 105.263 428.546 105.524C429.022 105.776 429.391 106.14 429.652 106.616C429.904 106.168 430.268 105.809 430.744 105.538C431.229 105.267 431.752 105.132 432.312 105.132ZM438.344 104.32C437.998 104.32 437.709 104.213 437.476 103.998C437.252 103.774 437.14 103.499 437.14 103.172C437.14 102.845 437.252 102.575 437.476 102.36C437.709 102.136 437.998 102.024 438.344 102.024C438.689 102.024 438.974 102.136 439.198 102.36C439.431 102.575 439.548 102.845 439.548 103.172C439.548 103.499 439.431 103.774 439.198 103.998C438.974 104.213 438.689 104.32 438.344 104.32ZM439.31 105.244V113H437.35V105.244H439.31ZM444.69 113.126C443.944 113.126 443.272 112.963 442.674 112.636C442.077 112.3 441.606 111.829 441.26 111.222C440.924 110.615 440.756 109.915 440.756 109.122C440.756 108.329 440.929 107.629 441.274 107.022C441.629 106.415 442.11 105.949 442.716 105.622C443.323 105.286 444 105.118 444.746 105.118C445.493 105.118 446.17 105.286 446.776 105.622C447.383 105.949 447.859 106.415 448.204 107.022C448.559 107.629 448.736 108.329 448.736 109.122C448.736 109.915 448.554 110.615 448.19 111.222C447.836 111.829 447.35 112.3 446.734 112.636C446.128 112.963 445.446 113.126 444.69 113.126ZM444.69 111.418C445.045 111.418 445.376 111.334 445.684 111.166C446.002 110.989 446.254 110.727 446.44 110.382C446.627 110.037 446.72 109.617 446.72 109.122C446.72 108.385 446.524 107.82 446.132 107.428C445.75 107.027 445.278 106.826 444.718 106.826C444.158 106.826 443.687 107.027 443.304 107.428C442.931 107.82 442.744 108.385 442.744 109.122C442.744 109.859 442.926 110.429 443.29 110.83C443.664 111.222 444.13 111.418 444.69 111.418ZM456.744 111.194L458.704 105.244H460.79L457.92 113H455.54L452.684 105.244H454.784L456.744 111.194ZM462.885 104.32C462.539 104.32 462.25 104.213 462.017 103.998C461.793 103.774 461.681 103.499 461.681 103.172C461.681 102.845 461.793 102.575 462.017 102.36C462.25 102.136 462.539 102.024 462.885 102.024C463.23 102.024 463.515 102.136 463.739 102.36C463.972 102.575 464.089 102.845 464.089 103.172C464.089 103.499 463.972 103.774 463.739 103.998C463.515 104.213 463.23 104.32 462.885 104.32ZM463.851 105.244V113H461.891V105.244H463.851ZM468.755 113.126C468.121 113.126 467.551 113.014 467.047 112.79C466.543 112.557 466.142 112.244 465.843 111.852C465.554 111.46 465.395 111.026 465.367 110.55H467.341C467.379 110.849 467.523 111.096 467.775 111.292C468.037 111.488 468.359 111.586 468.741 111.586C469.115 111.586 469.404 111.511 469.609 111.362C469.824 111.213 469.931 111.021 469.931 110.788C469.931 110.536 469.801 110.349 469.539 110.228C469.287 110.097 468.881 109.957 468.321 109.808C467.743 109.668 467.267 109.523 466.893 109.374C466.529 109.225 466.212 108.996 465.941 108.688C465.68 108.38 465.549 107.965 465.549 107.442C465.549 107.013 465.671 106.621 465.913 106.266C466.165 105.911 466.52 105.631 466.977 105.426C467.444 105.221 467.99 105.118 468.615 105.118C469.539 105.118 470.277 105.351 470.827 105.818C471.378 106.275 471.681 106.896 471.737 107.68H469.861C469.833 107.372 469.703 107.129 469.469 106.952C469.245 106.765 468.942 106.672 468.559 106.672C468.205 106.672 467.929 106.737 467.733 106.868C467.547 106.999 467.453 107.181 467.453 107.414C467.453 107.675 467.584 107.876 467.845 108.016C468.107 108.147 468.513 108.282 469.063 108.422C469.623 108.562 470.085 108.707 470.449 108.856C470.813 109.005 471.126 109.239 471.387 109.556C471.658 109.864 471.798 110.275 471.807 110.788C471.807 111.236 471.681 111.637 471.429 111.992C471.187 112.347 470.832 112.627 470.365 112.832C469.908 113.028 469.371 113.126 468.755 113.126ZM474.41 104.32C474.065 104.32 473.776 104.213 473.542 103.998C473.318 103.774 473.206 103.499 473.206 103.172C473.206 102.845 473.318 102.575 473.542 102.36C473.776 102.136 474.065 102.024 474.41 102.024C474.756 102.024 475.04 102.136 475.264 102.36C475.498 102.575 475.614 102.845 475.614 103.172C475.614 103.499 475.498 103.774 475.264 103.998C475.04 104.213 474.756 104.32 474.41 104.32ZM475.376 105.244V113H473.416V105.244H475.376ZM479.595 106.854V110.606C479.595 110.867 479.655 111.059 479.777 111.18C479.907 111.292 480.122 111.348 480.421 111.348H481.331V113H480.099C478.447 113 477.621 112.197 477.621 110.592V106.854H476.697V105.244H477.621V103.326H479.595V105.244H481.331V106.854H479.595ZM485.708 113.126C485.074 113.126 484.504 113.014 484 112.79C483.496 112.557 483.095 112.244 482.796 111.852C482.507 111.46 482.348 111.026 482.32 110.55H484.294C484.332 110.849 484.476 111.096 484.728 111.292C484.99 111.488 485.312 111.586 485.694 111.586C486.068 111.586 486.357 111.511 486.562 111.362C486.777 111.213 486.884 111.021 486.884 110.788C486.884 110.536 486.754 110.349 486.492 110.228C486.24 110.097 485.834 109.957 485.274 109.808C484.696 109.668 484.22 109.523 483.846 109.374C483.482 109.225 483.165 108.996 482.894 108.688C482.633 108.38 482.502 107.965 482.502 107.442C482.502 107.013 482.624 106.621 482.866 106.266C483.118 105.911 483.473 105.631 483.93 105.426C484.397 105.221 484.943 105.118 485.568 105.118C486.492 105.118 487.23 105.351 487.78 105.818C488.331 106.275 488.634 106.896 488.69 107.68H486.814C486.786 107.372 486.656 107.129 486.422 106.952C486.198 106.765 485.895 106.672 485.512 106.672C485.158 106.672 484.882 106.737 484.686 106.868C484.5 106.999 484.406 107.181 484.406 107.414C484.406 107.675 484.537 107.876 484.798 108.016C485.06 108.147 485.466 108.282 486.016 108.422C486.576 108.562 487.038 108.707 487.402 108.856C487.766 109.005 488.079 109.239 488.34 109.556C488.611 109.864 488.751 110.275 488.76 110.788C488.76 111.236 488.634 111.637 488.382 111.992C488.14 112.347 487.785 112.627 487.318 112.832C486.861 113.028 486.324 113.126 485.708 113.126Z" fill="black"/>
<rect x="613.5" y="1.5" width="279" height="145" fill="white"/>
<rect x="613.5" y="1.5" width="279" height="145" stroke="#96945C" stroke-width="3"/>
<path d="M710.893 40.676H706.441L705.587 43H704.551L708.121 33.34H709.227L712.783 43H711.747L710.893 40.676ZM710.599 39.864L708.667 34.572L706.735 39.864H710.599ZM715.321 37.036C715.564 36.5227 715.947 36.098 716.469 35.762C717.001 35.4167 717.631 35.244 718.359 35.244C719.05 35.244 719.671 35.4073 720.221 35.734C720.781 36.0513 721.215 36.5087 721.523 37.106C721.841 37.694 721.999 38.38 721.999 39.164C721.999 39.948 721.841 40.6387 721.523 41.236C721.215 41.8333 720.781 42.2953 720.221 42.622C719.671 42.9487 719.05 43.112 718.359 43.112C717.641 43.112 717.015 42.944 716.483 42.608C715.951 42.2627 715.564 41.8333 715.321 41.32V46.612H714.355V35.356H715.321V37.036ZM721.005 39.164C721.005 38.5293 720.879 37.9833 720.627 37.526C720.385 37.0593 720.049 36.7047 719.619 36.462C719.19 36.2193 718.705 36.098 718.163 36.098C717.641 36.098 717.16 36.224 716.721 36.476C716.292 36.728 715.951 37.0873 715.699 37.554C715.447 38.0207 715.321 38.562 715.321 39.178C715.321 39.794 715.447 40.3353 715.699 40.802C715.951 41.2687 716.292 41.628 716.721 41.88C717.16 42.132 717.641 42.258 718.163 42.258C718.705 42.258 719.19 42.1367 719.619 41.894C720.049 41.642 720.385 41.2827 720.627 40.816C720.879 40.34 721.005 39.7893 721.005 39.164ZM724.769 37.036C725.011 36.5227 725.394 36.098 725.917 35.762C726.449 35.4167 727.079 35.244 727.807 35.244C728.497 35.244 729.118 35.4073 729.669 35.734C730.229 36.0513 730.663 36.5087 730.971 37.106C731.288 37.694 731.447 38.38 731.447 39.164C731.447 39.948 731.288 40.6387 730.971 41.236C730.663 41.8333 730.229 42.2953 729.669 42.622C729.118 42.9487 728.497 43.112 727.807 43.112C727.088 43.112 726.463 42.944 725.931 42.608C725.399 42.2627 725.011 41.8333 724.769 41.32V46.612H723.803V35.356H724.769V37.036ZM730.453 39.164C730.453 38.5293 730.327 37.9833 730.075 37.526C729.832 37.0593 729.496 36.7047 729.067 36.462C728.637 36.2193 728.152 36.098 727.611 36.098C727.088 36.098 726.607 36.224 726.169 36.476C725.739 36.728 725.399 37.0873 725.147 37.554C724.895 38.0207 724.769 38.562 724.769 39.178C724.769 39.794 724.895 40.3353 725.147 40.802C725.399 41.2687 725.739 41.628 726.169 41.88C726.607 42.132 727.088 42.258 727.611 42.258C728.152 42.258 728.637 42.1367 729.067 41.894C729.496 41.642 729.832 41.2827 730.075 40.816C730.327 40.34 730.453 39.7893 730.453 39.164ZM734.23 36.714C734.445 36.238 734.771 35.8693 735.21 35.608C735.658 35.3467 736.204 35.216 736.848 35.216V36.238H736.582C735.873 36.238 735.303 36.4293 734.874 36.812C734.445 37.1947 734.23 37.834 734.23 38.73V43H733.25V35.356H734.23V36.714ZM741.668 43.112C740.949 43.112 740.301 42.9533 739.722 42.636C739.153 42.3093 738.7 41.852 738.364 41.264C738.037 40.6667 737.874 39.9713 737.874 39.178C737.874 38.3847 738.042 37.694 738.378 37.106C738.714 36.5087 739.171 36.0513 739.75 35.734C740.329 35.4073 740.977 35.244 741.696 35.244C742.415 35.244 743.063 35.4073 743.642 35.734C744.23 36.0513 744.687 36.5087 745.014 37.106C745.35 37.694 745.518 38.3847 745.518 39.178C745.518 39.962 745.35 40.6527 745.014 41.25C744.678 41.8473 744.216 42.3093 743.628 42.636C743.04 42.9533 742.387 43.112 741.668 43.112ZM741.668 42.258C742.172 42.258 742.639 42.146 743.068 41.922C743.497 41.6887 743.843 41.3433 744.104 40.886C744.375 40.4193 744.51 39.85 744.51 39.178C744.51 38.506 744.379 37.9413 744.118 37.484C743.857 37.0173 743.511 36.672 743.082 36.448C742.653 36.2147 742.186 36.098 741.682 36.098C741.178 36.098 740.711 36.2147 740.282 36.448C739.853 36.672 739.507 37.0173 739.246 37.484C738.994 37.9413 738.868 38.506 738.868 39.178C738.868 39.85 738.994 40.4193 739.246 40.886C739.507 41.3433 739.848 41.6887 740.268 41.922C740.697 42.146 741.164 42.258 741.668 42.258ZM750.021 42.048L752.597 35.356H753.633L750.567 43H749.461L746.395 35.356H747.445L750.021 42.048ZM761.877 38.786C761.877 39.122 761.867 39.3787 761.849 39.556H755.507C755.535 40.1347 755.675 40.6293 755.927 41.04C756.179 41.4507 756.51 41.7633 756.921 41.978C757.331 42.1833 757.779 42.286 758.265 42.286C758.899 42.286 759.431 42.132 759.861 41.824C760.299 41.516 760.589 41.1007 760.729 40.578H761.765C761.578 41.3247 761.177 41.936 760.561 42.412C759.954 42.8787 759.189 43.112 758.265 43.112C757.546 43.112 756.902 42.9533 756.333 42.636C755.763 42.3093 755.315 41.852 754.989 41.264C754.671 40.6667 754.513 39.9713 754.513 39.178C754.513 38.3847 754.671 37.6893 754.989 37.092C755.306 36.4947 755.749 36.0373 756.319 35.72C756.888 35.4027 757.537 35.244 758.265 35.244C758.993 35.244 759.627 35.4027 760.169 35.72C760.719 36.0373 761.139 36.4667 761.429 37.008C761.727 37.54 761.877 38.1327 761.877 38.786ZM760.883 38.758C760.892 38.1887 760.775 37.7033 760.533 37.302C760.299 36.9007 759.977 36.5973 759.567 36.392C759.156 36.1867 758.708 36.084 758.223 36.084C757.495 36.084 756.874 36.3173 756.361 36.784C755.847 37.2507 755.563 37.9087 755.507 38.758H760.883ZM773.77 36.028C773.77 36.868 773.494 37.5447 772.944 38.058C772.393 38.5713 771.567 38.828 770.466 38.828H768.492V43H767.512V33.214H770.466C771.558 33.214 772.379 33.4707 772.93 33.984C773.49 34.4973 773.77 35.1787 773.77 36.028ZM770.466 37.988C771.996 37.988 772.762 37.3347 772.762 36.028C772.762 35.3747 772.58 34.88 772.216 34.544C771.852 34.208 771.268 34.04 770.466 34.04H768.492V37.988H770.466ZM774.966 39.164C774.966 38.38 775.12 37.694 775.428 37.106C775.745 36.5087 776.179 36.0513 776.73 35.734C777.29 35.4073 777.92 35.244 778.62 35.244C779.348 35.244 779.973 35.412 780.496 35.748C781.028 36.084 781.411 36.5133 781.644 37.036V35.356H782.624V43H781.644V41.306C781.401 41.8287 781.014 42.2627 780.482 42.608C779.959 42.944 779.334 43.112 778.606 43.112C777.915 43.112 777.29 42.9487 776.73 42.622C776.179 42.2953 775.745 41.8333 775.428 41.236C775.12 40.6387 774.966 39.948 774.966 39.164ZM781.644 39.178C781.644 38.562 781.518 38.0207 781.266 37.554C781.014 37.0873 780.669 36.728 780.23 36.476C779.801 36.224 779.325 36.098 778.802 36.098C778.261 36.098 777.775 36.2193 777.346 36.462C776.917 36.7047 776.576 37.0593 776.324 37.526C776.081 37.9833 775.96 38.5293 775.96 39.164C775.96 39.7893 776.081 40.34 776.324 40.816C776.576 41.2827 776.917 41.642 777.346 41.894C777.775 42.1367 778.261 42.258 778.802 42.258C779.325 42.258 779.801 42.132 780.23 41.88C780.669 41.628 781.014 41.2687 781.266 40.802C781.518 40.3353 781.644 39.794 781.644 39.178ZM788.067 35.244C788.786 35.244 789.411 35.412 789.943 35.748C790.475 36.084 790.858 36.5087 791.091 37.022V35.356H792.071V43.196C792.071 43.896 791.917 44.5167 791.609 45.058C791.311 45.5993 790.891 46.0147 790.349 46.304C789.808 46.6027 789.192 46.752 788.501 46.752C787.521 46.752 786.705 46.5187 786.051 46.052C785.407 45.5853 785.006 44.9507 784.847 44.148H785.813C785.981 44.68 786.299 45.1047 786.765 45.422C787.241 45.7393 787.82 45.898 788.501 45.898C788.996 45.898 789.439 45.7907 789.831 45.576C790.223 45.3707 790.531 45.0627 790.755 44.652C790.979 44.2413 791.091 43.756 791.091 43.196V41.306C790.849 41.8287 790.461 42.2627 789.929 42.608C789.407 42.944 788.786 43.112 788.067 43.112C787.367 43.112 786.737 42.9487 786.177 42.622C785.627 42.2953 785.193 41.8333 784.875 41.236C784.567 40.6387 784.413 39.948 784.413 39.164C784.413 38.38 784.567 37.694 784.875 37.106C785.193 36.5087 785.627 36.0513 786.177 35.734C786.737 35.4073 787.367 35.244 788.067 35.244ZM791.091 39.178C791.091 38.562 790.965 38.0207 790.713 37.554C790.461 37.0873 790.116 36.728 789.677 36.476C789.248 36.224 788.772 36.098 788.249 36.098C787.708 36.098 787.223 36.2193 786.793 36.462C786.364 36.7047 786.023 37.0593 785.771 37.526C785.529 37.9833 785.407 38.5293 785.407 39.164C785.407 39.7893 785.529 40.34 785.771 40.816C786.023 41.2827 786.364 41.642 786.793 41.894C787.223 42.1367 787.708 42.258 788.249 42.258C788.772 42.258 789.248 42.132 789.677 41.88C790.116 41.628 790.461 41.2687 790.713 40.802C790.965 40.3353 791.091 39.794 791.091 39.178ZM801.224 38.786C801.224 39.122 801.215 39.3787 801.196 39.556H794.854C794.882 40.1347 795.022 40.6293 795.274 41.04C795.526 41.4507 795.858 41.7633 796.268 41.978C796.679 42.1833 797.127 42.286 797.612 42.286C798.247 42.286 798.779 42.132 799.208 41.824C799.647 41.516 799.936 41.1007 800.076 40.578H801.112C800.926 41.3247 800.524 41.936 799.908 42.412C799.302 42.8787 798.536 43.112 797.612 43.112C796.894 43.112 796.25 42.9533 795.68 42.636C795.111 42.3093 794.663 41.852 794.336 41.264C794.019 40.6667 793.86 39.9713 793.86 39.178C793.86 38.3847 794.019 37.6893 794.336 37.092C794.654 36.4947 795.097 36.0373 795.666 35.72C796.236 35.4027 796.884 35.244 797.612 35.244C798.34 35.244 798.975 35.4027 799.516 35.72C800.067 36.0373 800.487 36.4667 800.776 37.008C801.075 37.54 801.224 38.1327 801.224 38.786ZM800.23 38.758C800.24 38.1887 800.123 37.7033 799.88 37.302C799.647 36.9007 799.325 36.5973 798.914 36.392C798.504 36.1867 798.056 36.084 797.57 36.084C796.842 36.084 796.222 36.3173 795.708 36.784C795.195 37.2507 794.91 37.9087 794.854 38.758H800.23Z" fill="black"/>
<rect x="613.5" y="69.5" width="279" height="77" fill="#DFDFCE"/>
<rect x="613.5" y="69.5" width="279" height="77" stroke="#96945C" stroke-width="3"/>
<path d="M720.527 110.788C721.423 110.041 722.137 109.421 722.669 108.926C723.201 108.422 723.644 107.899 723.999 107.358C724.354 106.817 724.531 106.285 724.531 105.762C724.531 105.286 724.419 104.913 724.195 104.642C723.971 104.371 723.626 104.236 723.159 104.236C722.692 104.236 722.333 104.395 722.081 104.712C721.829 105.02 721.698 105.445 721.689 105.986H719.785C719.822 104.866 720.154 104.017 720.779 103.438C721.414 102.859 722.216 102.57 723.187 102.57C724.251 102.57 725.068 102.855 725.637 103.424C726.206 103.984 726.491 104.726 726.491 105.65C726.491 106.378 726.295 107.073 725.903 107.736C725.511 108.399 725.063 108.977 724.559 109.472C724.055 109.957 723.397 110.545 722.585 111.236H726.715V112.86H719.799V111.404L720.527 110.788ZM727.712 104.6V102.794H731.086V113H729.07V104.6H727.712ZM732.784 104.6V102.794H736.158V113H734.142V104.6H732.784ZM743.835 113L740.279 108.646V113H738.319V103.228H740.279V107.61L743.835 103.228H746.201L742.169 108.072L746.313 113H743.835ZM754.172 111.194L756.132 105.244H758.218L755.348 113H752.968L750.112 105.244H752.212L754.172 111.194ZM760.313 104.32C759.967 104.32 759.678 104.213 759.445 103.998C759.221 103.774 759.109 103.499 759.109 103.172C759.109 102.845 759.221 102.575 759.445 102.36C759.678 102.136 759.967 102.024 760.313 102.024C760.658 102.024 760.943 102.136 761.167 102.36C761.4 102.575 761.517 102.845 761.517 103.172C761.517 103.499 761.4 103.774 761.167 103.998C760.943 104.213 760.658 104.32 760.313 104.32ZM761.279 105.244V113H759.319V105.244H761.279ZM766.183 113.126C765.548 113.126 764.979 113.014 764.475 112.79C763.971 112.557 763.57 112.244 763.271 111.852C762.982 111.46 762.823 111.026 762.795 110.55H764.769C764.806 110.849 764.951 111.096 765.203 111.292C765.464 111.488 765.786 111.586 766.169 111.586C766.542 111.586 766.832 111.511 767.037 111.362C767.252 111.213 767.359 111.021 767.359 110.788C767.359 110.536 767.228 110.349 766.967 110.228C766.715 110.097 766.309 109.957 765.749 109.808C765.17 109.668 764.694 109.523 764.321 109.374C763.957 109.225 763.64 108.996 763.369 108.688C763.108 108.38 762.977 107.965 762.977 107.442C762.977 107.013 763.098 106.621 763.341 106.266C763.593 105.911 763.948 105.631 764.405 105.426C764.872 105.221 765.418 105.118 766.043 105.118C766.967 105.118 767.704 105.351 768.255 105.818C768.806 106.275 769.109 106.896 769.165 107.68H767.289C767.261 107.372 767.13 107.129 766.897 106.952C766.673 106.765 766.37 106.672 765.987 106.672C765.632 106.672 765.357 106.737 765.161 106.868C764.974 106.999 764.881 107.181 764.881 107.414C764.881 107.675 765.012 107.876 765.273 108.016C765.534 108.147 765.94 108.282 766.491 108.422C767.051 108.562 767.513 108.707 767.877 108.856C768.241 109.005 768.554 109.239 768.815 109.556C769.086 109.864 769.226 110.275 769.235 110.788C769.235 111.236 769.109 111.637 768.857 111.992C768.614 112.347 768.26 112.627 767.793 112.832C767.336 113.028 766.799 113.126 766.183 113.126ZM771.838 104.32C771.493 104.32 771.203 104.213 770.97 103.998C770.746 103.774 770.634 103.499 770.634 103.172C770.634 102.845 770.746 102.575 770.97 102.36C771.203 102.136 771.493 102.024 771.838 102.024C772.183 102.024 772.468 102.136 772.692 102.36C772.925 102.575 773.042 102.845 773.042 103.172C773.042 103.499 772.925 103.774 772.692 103.998C772.468 104.213 772.183 104.32 771.838 104.32ZM772.804 105.244V113H770.844V105.244H772.804ZM777.022 106.854V110.606C777.022 110.867 777.083 111.059 777.204 111.18C777.335 111.292 777.55 111.348 777.848 111.348H778.758V113H777.526C775.874 113 775.048 112.197 775.048 110.592V106.854H774.124V105.244H775.048V103.326H777.022V105.244H778.758V106.854H777.022ZM783.136 113.126C782.501 113.126 781.932 113.014 781.428 112.79C780.924 112.557 780.523 112.244 780.224 111.852C779.935 111.46 779.776 111.026 779.748 110.55H781.722C781.759 110.849 781.904 111.096 782.156 111.292C782.417 111.488 782.739 111.586 783.122 111.586C783.495 111.586 783.785 111.511 783.99 111.362C784.205 111.213 784.312 111.021 784.312 110.788C784.312 110.536 784.181 110.349 783.92 110.228C783.668 110.097 783.262 109.957 782.702 109.808C782.123 109.668 781.647 109.523 781.274 109.374C780.91 109.225 780.593 108.996 780.322 108.688C780.061 108.38 779.93 107.965 779.93 107.442C779.93 107.013 780.051 106.621 780.294 106.266C780.546 105.911 780.901 105.631 781.358 105.426C781.825 105.221 782.371 105.118 782.996 105.118C783.92 105.118 784.657 105.351 785.208 105.818C785.759 106.275 786.062 106.896 786.118 107.68H784.242C784.214 107.372 784.083 107.129 783.85 106.952C783.626 106.765 783.323 106.672 782.94 106.672C782.585 106.672 782.31 106.737 782.114 106.868C781.927 106.999 781.834 107.181 781.834 107.414C781.834 107.675 781.965 107.876 782.226 108.016C782.487 108.147 782.893 108.282 783.444 108.422C784.004 108.562 784.466 108.707 784.83 108.856C785.194 109.005 785.507 109.239 785.768 109.556C786.039 109.864 786.179 110.275 786.188 110.788C786.188 111.236 786.062 111.637 785.81 111.992C785.567 112.347 785.213 112.627 784.746 112.832C784.289 113.028 783.752 113.126 783.136 113.126Z" fill="black"/>
<rect x="919.5" y="1.5" width="279" height="145" fill="white"/>
<rect x="919.5" y="1.5" width="279" height="145" stroke="#96945C" stroke-width="3"/>
<path d="M1014.9 43.098C1014.26 43.098 1013.69 42.986 1013.19 42.762C1012.71 42.538 1012.33 42.2253 1012.05 41.824C1011.77 41.4227 1011.62 40.9747 1011.6 40.48H1012.63C1012.68 40.956 1012.89 41.376 1013.26 41.74C1013.64 42.0947 1014.18 42.272 1014.9 42.272C1015.56 42.272 1016.09 42.104 1016.47 41.768C1016.86 41.4227 1017.06 40.9887 1017.06 40.466C1017.06 40.046 1016.95 39.71 1016.74 39.458C1016.52 39.1967 1016.25 39.0053 1015.94 38.884C1015.62 38.7533 1015.18 38.6133 1014.62 38.464C1013.97 38.2867 1013.45 38.114 1013.07 37.946C1012.68 37.778 1012.36 37.5167 1012.09 37.162C1011.82 36.8073 1011.68 36.3267 1011.68 35.72C1011.68 35.216 1011.81 34.768 1012.07 34.376C1012.33 33.9747 1012.7 33.662 1013.18 33.438C1013.66 33.214 1014.2 33.102 1014.82 33.102C1015.72 33.102 1016.45 33.326 1017 33.774C1017.56 34.2127 1017.88 34.782 1017.97 35.482H1016.9C1016.84 35.0807 1016.62 34.726 1016.25 34.418C1015.87 34.1007 1015.37 33.942 1014.73 33.942C1014.15 33.942 1013.66 34.1007 1013.26 34.418C1012.87 34.726 1012.68 35.1507 1012.68 35.692C1012.68 36.1027 1012.78 36.434 1013 36.686C1013.21 36.938 1013.48 37.1293 1013.8 37.26C1014.12 37.3907 1014.56 37.5307 1015.11 37.68C1015.75 37.8573 1016.26 38.0347 1016.65 38.212C1017.04 38.38 1017.37 38.6413 1017.65 38.996C1017.92 39.3507 1018.05 39.8267 1018.05 40.424C1018.05 40.8813 1017.93 41.3153 1017.69 41.726C1017.44 42.1367 1017.09 42.468 1016.61 42.72C1016.13 42.972 1015.56 43.098 1014.9 43.098ZM1026.57 35.356V43H1025.59V41.656C1025.36 42.132 1025.02 42.496 1024.55 42.748C1024.08 43 1023.56 43.126 1022.98 43.126C1022.07 43.126 1021.32 42.846 1020.74 42.286C1020.16 41.7167 1019.88 40.8953 1019.88 39.822V35.356H1020.84V39.71C1020.84 40.5407 1021.05 41.1753 1021.46 41.614C1021.88 42.0527 1022.45 42.272 1023.17 42.272C1023.9 42.272 1024.49 42.0387 1024.93 41.572C1025.37 41.1053 1025.59 40.4193 1025.59 39.514V35.356H1026.57ZM1028.36 39.178C1028.36 38.3847 1028.52 37.694 1028.83 37.106C1029.15 36.5087 1029.59 36.0513 1030.15 35.734C1030.71 35.4073 1031.35 35.244 1032.07 35.244C1033.01 35.244 1033.78 35.4773 1034.39 35.944C1035.01 36.4107 1035.4 37.0453 1035.58 37.848H1034.53C1034.4 37.2973 1034.12 36.868 1033.68 36.56C1033.25 36.2427 1032.71 36.084 1032.07 36.084C1031.55 36.084 1031.09 36.2007 1030.68 36.434C1030.27 36.6673 1029.94 37.0173 1029.7 37.484C1029.47 37.9413 1029.35 38.506 1029.35 39.178C1029.35 39.85 1029.47 40.4193 1029.7 40.886C1029.94 41.3527 1030.27 41.7027 1030.68 41.936C1031.09 42.1693 1031.55 42.286 1032.07 42.286C1032.71 42.286 1033.25 42.132 1033.68 41.824C1034.12 41.5067 1034.4 41.068 1034.53 40.508H1035.58C1035.4 41.292 1035.01 41.922 1034.39 42.398C1033.77 42.874 1033 43.112 1032.07 43.112C1031.35 43.112 1030.71 42.9533 1030.15 42.636C1029.59 42.3093 1029.15 41.852 1028.83 41.264C1028.52 40.6667 1028.36 39.9713 1028.36 39.178ZM1036.94 39.178C1036.94 38.3847 1037.1 37.694 1037.42 37.106C1037.74 36.5087 1038.17 36.0513 1038.73 35.734C1039.29 35.4073 1039.93 35.244 1040.65 35.244C1041.6 35.244 1042.37 35.4773 1042.98 35.944C1043.59 36.4107 1043.99 37.0453 1044.17 37.848H1043.12C1042.99 37.2973 1042.7 36.868 1042.26 36.56C1041.83 36.2427 1041.3 36.084 1040.65 36.084C1040.14 36.084 1039.68 36.2007 1039.27 36.434C1038.86 36.6673 1038.53 37.0173 1038.29 37.484C1038.05 37.9413 1037.94 38.506 1037.94 39.178C1037.94 39.85 1038.05 40.4193 1038.29 40.886C1038.53 41.3527 1038.86 41.7027 1039.27 41.936C1039.68 42.1693 1040.14 42.286 1040.65 42.286C1041.3 42.286 1041.83 42.132 1042.26 41.824C1042.7 41.5067 1042.99 41.068 1043.12 40.508H1044.17C1043.99 41.292 1043.59 41.922 1042.98 42.398C1042.36 42.874 1041.59 43.112 1040.65 43.112C1039.93 43.112 1039.29 42.9533 1038.73 42.636C1038.17 42.3093 1037.74 41.852 1037.42 41.264C1037.1 40.6667 1036.94 39.9713 1036.94 39.178ZM1052.89 38.786C1052.89 39.122 1052.88 39.3787 1052.86 39.556H1046.52C1046.55 40.1347 1046.69 40.6293 1046.94 41.04C1047.19 41.4507 1047.53 41.7633 1047.94 41.978C1048.35 42.1833 1048.8 42.286 1049.28 42.286C1049.92 42.286 1050.45 42.132 1050.88 41.824C1051.32 41.516 1051.6 41.1007 1051.74 40.578H1052.78C1052.59 41.3247 1052.19 41.936 1051.58 42.412C1050.97 42.8787 1050.2 43.112 1049.28 43.112C1048.56 43.112 1047.92 42.9533 1047.35 42.636C1046.78 42.3093 1046.33 41.852 1046 41.264C1045.69 40.6667 1045.53 39.9713 1045.53 39.178C1045.53 38.3847 1045.69 37.6893 1046 37.092C1046.32 36.4947 1046.77 36.0373 1047.33 35.72C1047.9 35.4027 1048.55 35.244 1049.28 35.244C1050.01 35.244 1050.64 35.4027 1051.18 35.72C1051.74 36.0373 1052.16 36.4667 1052.44 37.008C1052.74 37.54 1052.89 38.1327 1052.89 38.786ZM1051.9 38.758C1051.91 38.1887 1051.79 37.7033 1051.55 37.302C1051.32 36.9007 1050.99 36.5973 1050.58 36.392C1050.17 36.1867 1049.72 36.084 1049.24 36.084C1048.51 36.084 1047.89 36.3173 1047.38 36.784C1046.86 37.2507 1046.58 37.9087 1046.52 38.758H1051.9ZM1057.32 43.112C1056.44 43.112 1055.72 42.9113 1055.16 42.51C1054.61 42.0993 1054.3 41.544 1054.24 40.844H1055.25C1055.29 41.2733 1055.49 41.6233 1055.85 41.894C1056.21 42.1553 1056.7 42.286 1057.3 42.286C1057.84 42.286 1058.25 42.16 1058.55 41.908C1058.86 41.656 1059.01 41.3433 1059.01 40.97C1059.01 40.7087 1058.93 40.494 1058.76 40.326C1058.59 40.158 1058.38 40.0273 1058.12 39.934C1057.86 39.8313 1057.52 39.724 1057.08 39.612C1056.51 39.4627 1056.05 39.3133 1055.69 39.164C1055.34 39.0147 1055.04 38.7953 1054.78 38.506C1054.54 38.2073 1054.42 37.8107 1054.42 37.316C1054.42 36.9427 1054.53 36.5973 1054.76 36.28C1054.98 35.9627 1055.3 35.7107 1055.71 35.524C1056.12 35.3373 1056.58 35.244 1057.11 35.244C1057.93 35.244 1058.59 35.454 1059.1 35.874C1059.6 36.2847 1059.87 36.854 1059.91 37.582H1058.93C1058.9 37.134 1058.72 36.7747 1058.4 36.504C1058.08 36.224 1057.64 36.084 1057.08 36.084C1056.58 36.084 1056.18 36.2007 1055.88 36.434C1055.57 36.6673 1055.41 36.9567 1055.41 37.302C1055.41 37.6007 1055.5 37.848 1055.68 38.044C1055.87 38.2307 1056.09 38.38 1056.37 38.492C1056.64 38.5947 1057 38.7113 1057.46 38.842C1058.01 38.9913 1058.45 39.136 1058.77 39.276C1059.1 39.416 1059.38 39.6213 1059.61 39.892C1059.85 40.1627 1059.97 40.522 1059.98 40.97C1059.98 41.3807 1059.87 41.7493 1059.64 42.076C1059.42 42.3933 1059.1 42.6453 1058.7 42.832C1058.3 43.0187 1057.84 43.112 1057.32 43.112ZM1064.45 43.112C1063.58 43.112 1062.86 42.9113 1062.3 42.51C1061.75 42.0993 1061.44 41.544 1061.37 40.844H1062.38C1062.43 41.2733 1062.63 41.6233 1062.98 41.894C1063.35 42.1553 1063.83 42.286 1064.44 42.286C1064.97 42.286 1065.39 42.16 1065.69 41.908C1065.99 41.656 1066.15 41.3433 1066.15 40.97C1066.15 40.7087 1066.06 40.494 1065.9 40.326C1065.73 40.158 1065.51 40.0273 1065.25 39.934C1065 39.8313 1064.65 39.724 1064.22 39.612C1063.65 39.4627 1063.18 39.3133 1062.83 39.164C1062.48 39.0147 1062.17 38.7953 1061.92 38.506C1061.68 38.2073 1061.56 37.8107 1061.56 37.316C1061.56 36.9427 1061.67 36.5973 1061.89 36.28C1062.12 35.9627 1062.43 35.7107 1062.84 35.524C1063.25 35.3373 1063.72 35.244 1064.24 35.244C1065.07 35.244 1065.73 35.454 1066.23 35.874C1066.74 36.2847 1067.01 36.854 1067.04 37.582H1066.06C1066.04 37.134 1065.86 36.7747 1065.53 36.504C1065.21 36.224 1064.78 36.084 1064.22 36.084C1063.72 36.084 1063.32 36.2007 1063.01 36.434C1062.7 36.6673 1062.55 36.9567 1062.55 37.302C1062.55 37.6007 1062.64 37.848 1062.82 38.044C1063 38.2307 1063.23 38.38 1063.5 38.492C1063.77 38.5947 1064.14 38.7113 1064.59 38.842C1065.14 38.9913 1065.58 39.136 1065.91 39.276C1066.24 39.416 1066.52 39.6213 1066.75 39.892C1066.98 40.1627 1067.1 40.522 1067.11 40.97C1067.11 41.3807 1067 41.7493 1066.78 42.076C1066.55 42.3933 1066.24 42.6453 1065.84 42.832C1065.44 43.0187 1064.98 43.112 1064.45 43.112ZM1079.06 36.028C1079.06 36.868 1078.78 37.5447 1078.23 38.058C1077.68 38.5713 1076.86 38.828 1075.75 38.828H1073.78V43H1072.8V33.214H1075.75C1076.85 33.214 1077.67 33.4707 1078.22 33.984C1078.78 34.4973 1079.06 35.1787 1079.06 36.028ZM1075.75 37.988C1077.29 37.988 1078.05 37.3347 1078.05 36.028C1078.05 35.3747 1077.87 34.88 1077.5 34.544C1077.14 34.208 1076.56 34.04 1075.75 34.04H1073.78V37.988H1075.75ZM1080.26 39.164C1080.26 38.38 1080.41 37.694 1080.72 37.106C1081.03 36.5087 1081.47 36.0513 1082.02 35.734C1082.58 35.4073 1083.21 35.244 1083.91 35.244C1084.64 35.244 1085.26 35.412 1085.79 35.748C1086.32 36.084 1086.7 36.5133 1086.93 37.036V35.356H1087.91V43H1086.93V41.306C1086.69 41.8287 1086.3 42.2627 1085.77 42.608C1085.25 42.944 1084.62 43.112 1083.9 43.112C1083.2 43.112 1082.58 42.9487 1082.02 42.622C1081.47 42.2953 1081.03 41.8333 1080.72 41.236C1080.41 40.6387 1080.26 39.948 1080.26 39.164ZM1086.93 39.178C1086.93 38.562 1086.81 38.0207 1086.56 37.554C1086.3 37.0873 1085.96 36.728 1085.52 36.476C1085.09 36.224 1084.61 36.098 1084.09 36.098C1083.55 36.098 1083.06 36.2193 1082.64 36.462C1082.21 36.7047 1081.87 37.0593 1081.61 37.526C1081.37 37.9833 1081.25 38.5293 1081.25 39.164C1081.25 39.7893 1081.37 40.34 1081.61 40.816C1081.87 41.2827 1082.21 41.642 1082.64 41.894C1083.06 42.1367 1083.55 42.258 1084.09 42.258C1084.61 42.258 1085.09 42.132 1085.52 41.88C1085.96 41.628 1086.3 41.2687 1086.56 40.802C1086.81 40.3353 1086.93 39.794 1086.93 39.178ZM1093.36 35.244C1094.07 35.244 1094.7 35.412 1095.23 35.748C1095.76 36.084 1096.15 36.5087 1096.38 37.022V35.356H1097.36V43.196C1097.36 43.896 1097.21 44.5167 1096.9 45.058C1096.6 45.5993 1096.18 46.0147 1095.64 46.304C1095.1 46.6027 1094.48 46.752 1093.79 46.752C1092.81 46.752 1091.99 46.5187 1091.34 46.052C1090.7 45.5853 1090.29 44.9507 1090.14 44.148H1091.1C1091.27 44.68 1091.59 45.1047 1092.05 45.422C1092.53 45.7393 1093.11 45.898 1093.79 45.898C1094.28 45.898 1094.73 45.7907 1095.12 45.576C1095.51 45.3707 1095.82 45.0627 1096.04 44.652C1096.27 44.2413 1096.38 43.756 1096.38 43.196V41.306C1096.14 41.8287 1095.75 42.2627 1095.22 42.608C1094.7 42.944 1094.07 43.112 1093.36 43.112C1092.66 43.112 1092.03 42.9487 1091.47 42.622C1090.92 42.2953 1090.48 41.8333 1090.16 41.236C1089.86 40.6387 1089.7 39.948 1089.7 39.164C1089.7 38.38 1089.86 37.694 1090.16 37.106C1090.48 36.5087 1090.92 36.0513 1091.47 35.734C1092.03 35.4073 1092.66 35.244 1093.36 35.244ZM1096.38 39.178C1096.38 38.562 1096.25 38.0207 1096 37.554C1095.75 37.0873 1095.4 36.728 1094.97 36.476C1094.54 36.224 1094.06 36.098 1093.54 36.098C1093 36.098 1092.51 36.2193 1092.08 36.462C1091.65 36.7047 1091.31 37.0593 1091.06 37.526C1090.82 37.9833 1090.7 38.5293 1090.7 39.164C1090.7 39.7893 1090.82 40.34 1091.06 40.816C1091.31 41.2827 1091.65 41.642 1092.08 41.894C1092.51 42.1367 1093 42.258 1093.54 42.258C1094.06 42.258 1094.54 42.132 1094.97 41.88C1095.4 41.628 1095.75 41.2687 1096 40.802C1096.25 40.3353 1096.38 39.794 1096.38 39.178ZM1106.51 38.786C1106.51 39.122 1106.5 39.3787 1106.49 39.556H1100.14C1100.17 40.1347 1100.31 40.6293 1100.56 41.04C1100.82 41.4507 1101.15 41.7633 1101.56 41.978C1101.97 42.1833 1102.42 42.286 1102.9 42.286C1103.54 42.286 1104.07 42.132 1104.5 41.824C1104.94 41.516 1105.23 41.1007 1105.37 40.578H1106.4C1106.21 41.3247 1105.81 41.936 1105.2 42.412C1104.59 42.8787 1103.83 43.112 1102.9 43.112C1102.18 43.112 1101.54 42.9533 1100.97 42.636C1100.4 42.3093 1099.95 41.852 1099.63 41.264C1099.31 40.6667 1099.15 39.9713 1099.15 39.178C1099.15 38.3847 1099.31 37.6893 1099.63 37.092C1099.94 36.4947 1100.39 36.0373 1100.96 35.72C1101.52 35.4027 1102.17 35.244 1102.9 35.244C1103.63 35.244 1104.26 35.4027 1104.81 35.72C1105.36 36.0373 1105.78 36.4667 1106.07 37.008C1106.36 37.54 1106.51 38.1327 1106.51 38.786ZM1105.52 38.758C1105.53 38.1887 1105.41 37.7033 1105.17 37.302C1104.94 36.9007 1104.61 36.5973 1104.2 36.392C1103.79 36.1867 1103.34 36.084 1102.86 36.084C1102.13 36.084 1101.51 36.3173 1101 36.784C1100.48 37.2507 1100.2 37.9087 1100.14 38.758H1105.52Z" fill="black"/>
<rect x="919.5" y="69.5" width="279" height="77" fill="#DFDFCE"/>
<rect x="919.5" y="69.5" width="279" height="77" stroke="#96945C" stroke-width="3"/>
<path d="M1033.28 105.342C1033.19 104.95 1033.02 104.656 1032.79 104.46C1032.57 104.264 1032.24 104.166 1031.81 104.166C1031.17 104.166 1030.69 104.427 1030.38 104.95C1030.08 105.463 1029.93 106.303 1029.92 107.47C1030.15 107.097 1030.47 106.807 1030.9 106.602C1031.33 106.387 1031.8 106.28 1032.3 106.28C1032.91 106.28 1033.44 106.411 1033.91 106.672C1034.38 106.933 1034.74 107.316 1035 107.82C1035.26 108.315 1035.4 108.912 1035.4 109.612C1035.4 110.275 1035.26 110.867 1034.99 111.39C1034.73 111.903 1034.34 112.305 1033.83 112.594C1033.31 112.883 1032.7 113.028 1031.99 113.028C1031.02 113.028 1030.26 112.813 1029.7 112.384C1029.15 111.955 1028.76 111.357 1028.54 110.592C1028.32 109.817 1028.21 108.865 1028.21 107.736C1028.21 106.028 1028.51 104.74 1029.1 103.872C1029.68 102.995 1030.61 102.556 1031.88 102.556C1032.86 102.556 1033.62 102.822 1034.16 103.354C1034.7 103.886 1035.02 104.549 1035.1 105.342H1033.28ZM1031.85 107.89C1031.36 107.89 1030.94 108.035 1030.61 108.324C1030.27 108.613 1030.1 109.033 1030.1 109.584C1030.1 110.135 1030.26 110.569 1030.57 110.886C1030.88 111.203 1031.33 111.362 1031.9 111.362C1032.4 111.362 1032.8 111.208 1033.09 110.9C1033.38 110.592 1033.53 110.177 1033.53 109.654C1033.53 109.113 1033.39 108.683 1033.1 108.366C1032.82 108.049 1032.4 107.89 1031.85 107.89ZM1036.71 104.6V102.794H1040.08V113H1038.06V104.6H1036.71ZM1047.76 113L1044.2 108.646V113H1042.24V103.228H1044.2V107.61L1047.76 103.228H1050.12L1046.09 108.072L1050.23 113H1047.76ZM1058.09 111.194L1060.05 105.244H1062.14L1059.27 113H1056.89L1054.03 105.244H1056.13L1058.09 111.194ZM1064.23 104.32C1063.89 104.32 1063.6 104.213 1063.37 103.998C1063.14 103.774 1063.03 103.499 1063.03 103.172C1063.03 102.845 1063.14 102.575 1063.37 102.36C1063.6 102.136 1063.89 102.024 1064.23 102.024C1064.58 102.024 1064.86 102.136 1065.09 102.36C1065.32 102.575 1065.44 102.845 1065.44 103.172C1065.44 103.499 1065.32 103.774 1065.09 103.998C1064.86 104.213 1064.58 104.32 1064.23 104.32ZM1065.2 105.244V113H1063.24V105.244H1065.2ZM1070.1 113.126C1069.47 113.126 1068.9 113.014 1068.4 112.79C1067.89 112.557 1067.49 112.244 1067.19 111.852C1066.9 111.46 1066.74 111.026 1066.72 110.55H1068.69C1068.73 110.849 1068.87 111.096 1069.12 111.292C1069.39 111.488 1069.71 111.586 1070.09 111.586C1070.46 111.586 1070.75 111.511 1070.96 111.362C1071.17 111.213 1071.28 111.021 1071.28 110.788C1071.28 110.536 1071.15 110.349 1070.89 110.228C1070.64 110.097 1070.23 109.957 1069.67 109.808C1069.09 109.668 1068.62 109.523 1068.24 109.374C1067.88 109.225 1067.56 108.996 1067.29 108.688C1067.03 108.38 1066.9 107.965 1066.9 107.442C1066.9 107.013 1067.02 106.621 1067.26 106.266C1067.51 105.911 1067.87 105.631 1068.33 105.426C1068.79 105.221 1069.34 105.118 1069.96 105.118C1070.89 105.118 1071.63 105.351 1072.18 105.818C1072.73 106.275 1073.03 106.896 1073.09 107.68H1071.21C1071.18 107.372 1071.05 107.129 1070.82 106.952C1070.59 106.765 1070.29 106.672 1069.91 106.672C1069.55 106.672 1069.28 106.737 1069.08 106.868C1068.9 106.999 1068.8 107.181 1068.8 107.414C1068.8 107.675 1068.93 107.876 1069.19 108.016C1069.46 108.147 1069.86 108.282 1070.41 108.422C1070.97 108.562 1071.43 108.707 1071.8 108.856C1072.16 109.005 1072.48 109.239 1072.74 109.556C1073.01 109.864 1073.15 110.275 1073.16 110.788C1073.16 111.236 1073.03 111.637 1072.78 111.992C1072.54 112.347 1072.18 112.627 1071.71 112.832C1071.26 113.028 1070.72 113.126 1070.1 113.126ZM1075.76 104.32C1075.41 104.32 1075.13 104.213 1074.89 103.998C1074.67 103.774 1074.56 103.499 1074.56 103.172C1074.56 102.845 1074.67 102.575 1074.89 102.36C1075.13 102.136 1075.41 102.024 1075.76 102.024C1076.11 102.024 1076.39 102.136 1076.61 102.36C1076.85 102.575 1076.96 102.845 1076.96 103.172C1076.96 103.499 1076.85 103.774 1076.61 103.998C1076.39 104.213 1076.11 104.32 1075.76 104.32ZM1076.73 105.244V113H1074.77V105.244H1076.73ZM1080.94 106.854V110.606C1080.94 110.867 1081 111.059 1081.13 111.18C1081.26 111.292 1081.47 111.348 1081.77 111.348H1082.68V113H1081.45C1079.8 113 1078.97 112.197 1078.97 110.592V106.854H1078.05V105.244H1078.97V103.326H1080.94V105.244H1082.68V106.854H1080.94ZM1087.06 113.126C1086.42 113.126 1085.85 113.014 1085.35 112.79C1084.85 112.557 1084.44 112.244 1084.15 111.852C1083.86 111.46 1083.7 111.026 1083.67 110.55H1085.64C1085.68 110.849 1085.83 111.096 1086.08 111.292C1086.34 111.488 1086.66 111.586 1087.04 111.586C1087.42 111.586 1087.71 111.511 1087.91 111.362C1088.13 111.213 1088.23 111.021 1088.23 110.788C1088.23 110.536 1088.1 110.349 1087.84 110.228C1087.59 110.097 1087.18 109.957 1086.62 109.808C1086.05 109.668 1085.57 109.523 1085.2 109.374C1084.83 109.225 1084.51 108.996 1084.24 108.688C1083.98 108.38 1083.85 107.965 1083.85 107.442C1083.85 107.013 1083.97 106.621 1084.22 106.266C1084.47 105.911 1084.82 105.631 1085.28 105.426C1085.75 105.221 1086.29 105.118 1086.92 105.118C1087.84 105.118 1088.58 105.351 1089.13 105.818C1089.68 106.275 1089.98 106.896 1090.04 107.68H1088.16C1088.14 107.372 1088.01 107.129 1087.77 106.952C1087.55 106.765 1087.24 106.672 1086.86 106.672C1086.51 106.672 1086.23 106.737 1086.04 106.868C1085.85 106.999 1085.76 107.181 1085.76 107.414C1085.76 107.675 1085.89 107.876 1086.15 108.016C1086.41 108.147 1086.82 108.282 1087.37 108.422C1087.93 108.562 1088.39 108.707 1088.75 108.856C1089.12 109.005 1089.43 109.239 1089.69 109.556C1089.96 109.864 1090.1 110.275 1090.11 110.788C1090.11 111.236 1089.98 111.637 1089.73 111.992C1089.49 112.347 1089.13 112.627 1088.67 112.832C1088.21 113.028 1087.67 113.126 1087.06 113.126Z" fill="black"/>
<path d="M393 155.024C393.013 154.472 392.577 154.014 392.024 154L383.027 153.781C382.475 153.767 382.016 154.204 382.003 154.756C381.99 155.308 382.426 155.767 382.978 155.78L390.976 155.975L390.781 163.973C390.767 164.525 391.204 164.984 391.756 164.997C392.308 165.01 392.767 164.574 392.78 164.022L393 155.024ZM188 155L187.323 155.736C212.795 179.191 250.929 191.748 289.239 192.187C327.551 192.627 366.204 180.949 392.69 155.724L392 155L391.31 154.276C365.296 179.051 327.199 190.623 289.261 190.188C251.321 189.752 213.705 177.309 188.677 154.264L188 155Z" fill="#96945C"/>
<path d="M707 155.024C707.013 154.472 706.577 154.014 706.024 154L697.027 153.781C696.475 153.767 696.016 154.204 696.003 154.756C695.99 155.308 696.426 155.767 696.978 155.78L704.976 155.975L704.781 163.973C704.767 164.525 705.204 164.984 705.756 164.997C706.308 165.01 706.767 164.574 706.78 164.022L707 155.024ZM502 155L501.323 155.736C526.795 179.191 564.929 191.748 603.239 192.187C641.551 192.627 680.204 180.949 706.69 155.724L706 155L705.31 154.276C679.296 179.051 641.199 190.623 603.261 190.188C565.321 189.752 527.705 177.309 502.677 154.264L502 155Z" fill="#96945C"/>
<path d="M1020 155.024C1020.01 154.472 1019.58 154.014 1019.02 154L1010.03 153.781C1009.47 153.767 1009.02 154.204 1009 154.756C1008.99 155.308 1009.43 155.767 1009.98 155.78L1017.98 155.975L1017.78 163.973C1017.77 164.525 1018.2 164.984 1018.76 164.997C1019.31 165.01 1019.77 164.574 1019.78 164.022L1020 155.024ZM815 155L814.323 155.736C839.795 179.191 877.929 191.748 916.239 192.187C954.551 192.627 993.204 180.949 1019.69 155.724L1019 155L1018.31 154.276C992.296 179.051 954.199 190.623 916.261 190.188C878.321 189.752 840.705 177.309 815.677 154.264L815 155Z" fill="#96945C"/>
<path d="M251.424 221.9C253.878 220.06 255.771 218.413 257.104 216.96C258.451 215.493 259.124 214.06 259.124 212.66C259.124 211.74 258.891 211.007 258.424 210.46C257.971 209.9 257.224 209.62 256.184 209.62C255.171 209.62 254.384 209.94 253.824 210.58C253.278 211.207 252.971 212.047 252.904 213.1H251.544C251.624 211.62 252.078 210.473 252.904 209.66C253.744 208.833 254.838 208.42 256.184 208.42C257.478 208.42 258.524 208.787 259.324 209.52C260.124 210.24 260.524 211.267 260.524 212.6C260.524 214.213 259.851 215.78 258.504 217.3C257.171 218.807 255.524 220.28 253.564 221.72H260.964V222.9H251.424V221.9ZM271.39 212.16C271.096 210.427 270.09 209.56 268.37 209.56C267.063 209.56 266.083 210.067 265.43 211.08C264.776 212.093 264.476 213.753 264.53 216.06C264.796 215.26 265.303 214.633 266.05 214.18C266.81 213.713 267.676 213.48 268.65 213.48C270.05 213.48 271.156 213.913 271.97 214.78C272.796 215.633 273.21 216.813 273.21 218.32C273.21 219.2 273.036 220 272.69 220.72C272.356 221.427 271.836 221.993 271.13 222.42C270.436 222.847 269.57 223.06 268.53 223.06C266.543 223.06 265.17 222.427 264.41 221.16C263.663 219.893 263.29 218.1 263.29 215.78C263.29 210.847 264.983 208.38 268.37 208.38C269.65 208.38 270.656 208.733 271.39 209.44C272.123 210.133 272.556 211.04 272.69 212.16H271.39ZM268.39 214.68C267.763 214.68 267.17 214.807 266.61 215.06C266.05 215.313 265.59 215.7 265.23 216.22C264.883 216.727 264.71 217.353 264.71 218.1C264.71 219.18 265.03 220.08 265.67 220.8C266.31 221.52 267.243 221.88 268.47 221.88C269.496 221.88 270.316 221.567 270.93 220.94C271.543 220.313 271.85 219.46 271.85 218.38C271.85 217.22 271.55 216.313 270.95 215.66C270.35 215.007 269.496 214.68 268.39 214.68ZM275.288 211.66C275.288 210.807 275.548 210.12 276.068 209.6C276.601 209.067 277.274 208.8 278.088 208.8C278.914 208.8 279.588 209.067 280.108 209.6C280.641 210.12 280.908 210.807 280.908 211.66C280.908 212.527 280.641 213.227 280.108 213.76C279.588 214.28 278.914 214.54 278.088 214.54C277.274 214.54 276.601 214.28 276.068 213.76C275.548 213.227 275.288 212.527 275.288 211.66ZM286.488 209L278.288 223H276.868L285.088 209H286.488ZM278.088 209.7C277.581 209.7 277.174 209.873 276.868 210.22C276.574 210.553 276.428 211.033 276.428 211.66C276.428 212.287 276.574 212.773 276.868 213.12C277.174 213.467 277.581 213.64 278.088 213.64C278.594 213.64 279.001 213.467 279.308 213.12C279.614 212.773 279.768 212.287 279.768 211.66C279.768 211.047 279.614 210.567 279.308 210.22C279.001 209.873 278.594 209.7 278.088 209.7ZM282.488 220.34C282.488 219.473 282.748 218.78 283.268 218.26C283.801 217.727 284.474 217.46 285.288 217.46C286.101 217.46 286.768 217.727 287.288 218.26C287.821 218.78 288.088 219.473 288.088 220.34C288.088 221.207 287.821 221.907 287.288 222.44C286.768 222.96 286.101 223.22 285.288 223.22C284.474 223.22 283.801 222.96 283.268 222.44C282.748 221.907 282.488 221.207 282.488 220.34ZM285.288 218.38C284.781 218.38 284.374 218.553 284.068 218.9C283.761 219.247 283.608 219.727 283.608 220.34C283.608 220.953 283.761 221.433 284.068 221.78C284.374 222.127 284.781 222.3 285.288 222.3C285.794 222.3 286.194 222.133 286.488 221.8C286.794 221.453 286.948 220.967 286.948 220.34C286.948 219.713 286.794 219.233 286.488 218.9C286.194 218.553 285.794 218.38 285.288 218.38ZM295.388 216C295.388 214.627 295.688 213.4 296.288 212.32C296.888 211.227 297.708 210.38 298.748 209.78C299.788 209.167 300.948 208.86 302.228 208.86C303.788 208.86 305.121 209.233 306.228 209.98C307.348 210.713 308.161 211.753 308.668 213.1H307.028C306.628 212.153 306.014 211.413 305.188 210.88C304.374 210.347 303.388 210.08 302.228 210.08C301.201 210.08 300.274 210.32 299.448 210.8C298.634 211.28 297.994 211.973 297.528 212.88C297.061 213.773 296.828 214.813 296.828 216C296.828 217.187 297.061 218.227 297.528 219.12C297.994 220.013 298.634 220.7 299.448 221.18C300.274 221.66 301.201 221.9 302.228 221.9C303.388 221.9 304.374 221.64 305.188 221.12C306.014 220.587 306.628 219.853 307.028 218.92H308.668C308.161 220.253 307.348 221.287 306.228 222.02C305.108 222.753 303.774 223.12 302.228 223.12C300.948 223.12 299.788 222.82 298.748 222.22C297.708 221.607 296.888 220.76 296.288 219.68C295.688 218.6 295.388 217.373 295.388 216ZM318.897 223L315.437 217.16H312.857V223H311.457V209.02H315.657C317.217 209.02 318.397 209.393 319.197 210.14C320.011 210.887 320.417 211.867 320.417 213.08C320.417 214.093 320.124 214.96 319.537 215.68C318.964 216.387 318.111 216.847 316.977 217.06L320.577 223H318.897ZM312.857 216.02H315.677C316.771 216.02 317.591 215.753 318.137 215.22C318.697 214.687 318.977 213.973 318.977 213.08C318.977 212.16 318.711 211.453 318.177 210.96C317.644 210.453 316.804 210.2 315.657 210.2H312.857V216.02Z" fill="black"/>
<path d="M567.866 209.92V208.66H571.266V223H569.846V209.92H567.866ZM576.246 219.18C576.393 220.047 576.726 220.713 577.246 221.18C577.766 221.647 578.479 221.88 579.386 221.88C580.639 221.88 581.566 221.393 582.166 220.42C582.779 219.433 583.059 217.807 583.006 215.54C582.753 216.273 582.266 216.853 581.546 217.28C580.839 217.693 580.026 217.9 579.106 217.9C577.706 217.9 576.579 217.48 575.726 216.64C574.886 215.8 574.466 214.633 574.466 213.14C574.466 212.247 574.639 211.44 574.986 210.72C575.333 210 575.859 209.433 576.566 209.02C577.273 208.607 578.139 208.4 579.166 208.4C581.059 208.4 582.379 209.02 583.126 210.26C583.873 211.487 584.246 213.253 584.246 215.56C584.246 218.053 583.873 219.927 583.126 221.18C582.393 222.433 581.126 223.06 579.326 223.06C578.006 223.06 576.979 222.707 576.246 222C575.513 221.28 575.079 220.34 574.946 219.18H576.246ZM579.326 216.7C579.953 216.7 580.526 216.573 581.046 216.32C581.579 216.053 582.006 215.667 582.326 215.16C582.646 214.653 582.806 214.047 582.806 213.34C582.806 212.247 582.493 211.347 581.866 210.64C581.253 209.933 580.366 209.58 579.206 209.58C578.179 209.58 577.353 209.9 576.726 210.54C576.113 211.18 575.806 212.033 575.806 213.1C575.806 214.22 576.113 215.1 576.726 215.74C577.339 216.38 578.206 216.7 579.326 216.7ZM586.446 211.66C586.446 210.807 586.706 210.12 587.226 209.6C587.759 209.067 588.433 208.8 589.246 208.8C590.073 208.8 590.746 209.067 591.266 209.6C591.799 210.12 592.066 210.807 592.066 211.66C592.066 212.527 591.799 213.227 591.266 213.76C590.746 214.28 590.073 214.54 589.246 214.54C588.433 214.54 587.759 214.28 587.226 213.76C586.706 213.227 586.446 212.527 586.446 211.66ZM597.646 209L589.446 223H588.026L596.246 209H597.646ZM589.246 209.7C588.739 209.7 588.333 209.873 588.026 210.22C587.733 210.553 587.586 211.033 587.586 211.66C587.586 212.287 587.733 212.773 588.026 213.12C588.333 213.467 588.739 213.64 589.246 213.64C589.753 213.64 590.159 213.467 590.466 213.12C590.773 212.773 590.926 212.287 590.926 211.66C590.926 211.047 590.773 210.567 590.466 210.22C590.159 209.873 589.753 209.7 589.246 209.7ZM593.646 220.34C593.646 219.473 593.906 218.78 594.426 218.26C594.959 217.727 595.633 217.46 596.446 217.46C597.259 217.46 597.926 217.727 598.446 218.26C598.979 218.78 599.246 219.473 599.246 220.34C599.246 221.207 598.979 221.907 598.446 222.44C597.926 222.96 597.259 223.22 596.446 223.22C595.633 223.22 594.959 222.96 594.426 222.44C593.906 221.907 593.646 221.207 593.646 220.34ZM596.446 218.38C595.939 218.38 595.533 218.553 595.226 218.9C594.919 219.247 594.766 219.727 594.766 220.34C594.766 220.953 594.919 221.433 595.226 221.78C595.533 222.127 595.939 222.3 596.446 222.3C596.953 222.3 597.353 222.133 597.646 221.8C597.953 221.453 598.106 220.967 598.106 220.34C598.106 219.713 597.953 219.233 597.646 218.9C597.353 218.553 596.953 218.38 596.446 218.38ZM606.546 216C606.546 214.627 606.846 213.4 607.446 212.32C608.046 211.227 608.866 210.38 609.906 209.78C610.946 209.167 612.106 208.86 613.386 208.86C614.946 208.86 616.279 209.233 617.386 209.98C618.506 210.713 619.319 211.753 619.826 213.1H618.186C617.786 212.153 617.173 211.413 616.346 210.88C615.533 210.347 614.546 210.08 613.386 210.08C612.359 210.08 611.433 210.32 610.606 210.8C609.793 211.28 609.153 211.973 608.686 212.88C608.219 213.773 607.986 214.813 607.986 216C607.986 217.187 608.219 218.227 608.686 219.12C609.153 220.013 609.793 220.7 610.606 221.18C611.433 221.66 612.359 221.9 613.386 221.9C614.546 221.9 615.533 221.64 616.346 221.12C617.173 220.587 617.786 219.853 618.186 218.92H619.826C619.319 220.253 618.506 221.287 617.386 222.02C616.266 222.753 614.933 223.12 613.386 223.12C612.106 223.12 610.946 222.82 609.906 222.22C608.866 221.607 608.046 220.76 607.446 219.68C606.846 218.6 606.546 217.373 606.546 216ZM630.056 223L626.596 217.16H624.016V223H622.616V209.02H626.816C628.376 209.02 629.556 209.393 630.356 210.14C631.169 210.887 631.576 211.867 631.576 213.08C631.576 214.093 631.282 214.96 630.696 215.68C630.122 216.387 629.269 216.847 628.136 217.06L631.736 223H630.056ZM624.016 216.02H626.836C627.929 216.02 628.749 215.753 629.296 215.22C629.856 214.687 630.136 213.973 630.136 213.08C630.136 212.16 629.869 211.453 629.336 210.96C628.802 210.453 627.962 210.2 626.816 210.2H624.016V216.02Z" fill="black"/>
<path d="M878.463 221.9C880.917 220.06 882.81 218.413 884.143 216.96C885.49 215.493 886.163 214.06 886.163 212.66C886.163 211.74 885.93 211.007 885.463 210.46C885.01 209.9 884.263 209.62 883.223 209.62C882.21 209.62 881.423 209.94 880.863 210.58C880.317 211.207 880.01 212.047 879.943 213.1H878.583C878.663 211.62 879.117 210.473 879.943 209.66C880.783 208.833 881.877 208.42 883.223 208.42C884.517 208.42 885.563 208.787 886.363 209.52C887.163 210.24 887.563 211.267 887.563 212.6C887.563 214.213 886.89 215.78 885.543 217.3C884.21 218.807 882.563 220.28 880.603 221.72H888.003V222.9H878.463V221.9ZM892.049 219.18C892.195 220.047 892.529 220.713 893.049 221.18C893.569 221.647 894.282 221.88 895.189 221.88C896.442 221.88 897.369 221.393 897.969 220.42C898.582 219.433 898.862 217.807 898.809 215.54C898.555 216.273 898.069 216.853 897.349 217.28C896.642 217.693 895.829 217.9 894.909 217.9C893.509 217.9 892.382 217.48 891.529 216.64C890.689 215.8 890.269 214.633 890.269 213.14C890.269 212.247 890.442 211.44 890.789 210.72C891.135 210 891.662 209.433 892.369 209.02C893.075 208.607 893.942 208.4 894.969 208.4C896.862 208.4 898.182 209.02 898.929 210.26C899.675 211.487 900.049 213.253 900.049 215.56C900.049 218.053 899.675 219.927 898.929 221.18C898.195 222.433 896.929 223.06 895.129 223.06C893.809 223.06 892.782 222.707 892.049 222C891.315 221.28 890.882 220.34 890.749 219.18H892.049ZM895.129 216.7C895.755 216.7 896.329 216.573 896.849 216.32C897.382 216.053 897.809 215.667 898.129 215.16C898.449 214.653 898.609 214.047 898.609 213.34C898.609 212.247 898.295 211.347 897.669 210.64C897.055 209.933 896.169 209.58 895.009 209.58C893.982 209.58 893.155 209.9 892.529 210.54C891.915 211.18 891.609 212.033 891.609 213.1C891.609 214.22 891.915 215.1 892.529 215.74C893.142 216.38 894.009 216.7 895.129 216.7ZM902.249 211.66C902.249 210.807 902.509 210.12 903.029 209.6C903.562 209.067 904.235 208.8 905.049 208.8C905.875 208.8 906.549 209.067 907.069 209.6C907.602 210.12 907.869 210.807 907.869 211.66C907.869 212.527 907.602 213.227 907.069 213.76C906.549 214.28 905.875 214.54 905.049 214.54C904.235 214.54 903.562 214.28 903.029 213.76C902.509 213.227 902.249 212.527 902.249 211.66ZM913.449 209L905.249 223H903.829L912.049 209H913.449ZM905.049 209.7C904.542 209.7 904.135 209.873 903.829 210.22C903.535 210.553 903.389 211.033 903.389 211.66C903.389 212.287 903.535 212.773 903.829 213.12C904.135 213.467 904.542 213.64 905.049 213.64C905.555 213.64 905.962 213.467 906.269 213.12C906.575 212.773 906.729 212.287 906.729 211.66C906.729 211.047 906.575 210.567 906.269 210.22C905.962 209.873 905.555 209.7 905.049 209.7ZM909.449 220.34C909.449 219.473 909.709 218.78 910.229 218.26C910.762 217.727 911.435 217.46 912.249 217.46C913.062 217.46 913.729 217.727 914.249 218.26C914.782 218.78 915.049 219.473 915.049 220.34C915.049 221.207 914.782 221.907 914.249 222.44C913.729 222.96 913.062 223.22 912.249 223.22C911.435 223.22 910.762 222.96 910.229 222.44C909.709 221.907 909.449 221.207 909.449 220.34ZM912.249 218.38C911.742 218.38 911.335 218.553 911.029 218.9C910.722 219.247 910.569 219.727 910.569 220.34C910.569 220.953 910.722 221.433 911.029 221.78C911.335 222.127 911.742 222.3 912.249 222.3C912.755 222.3 913.155 222.133 913.449 221.8C913.755 221.453 913.909 220.967 913.909 220.34C913.909 219.713 913.755 219.233 913.449 218.9C913.155 218.553 912.755 218.38 912.249 218.38ZM922.349 216C922.349 214.627 922.649 213.4 923.249 212.32C923.849 211.227 924.669 210.38 925.709 209.78C926.749 209.167 927.909 208.86 929.189 208.86C930.749 208.86 932.082 209.233 933.189 209.98C934.309 210.713 935.122 211.753 935.629 213.1H933.989C933.589 212.153 932.975 211.413 932.149 210.88C931.335 210.347 930.349 210.08 929.189 210.08C928.162 210.08 927.235 210.32 926.409 210.8C925.595 211.28 924.955 211.973 924.489 212.88C924.022 213.773 923.789 214.813 923.789 216C923.789 217.187 924.022 218.227 924.489 219.12C924.955 220.013 925.595 220.7 926.409 221.18C927.235 221.66 928.162 221.9 929.189 221.9C930.349 221.9 931.335 221.64 932.149 221.12C932.975 220.587 933.589 219.853 933.989 218.92H935.629C935.122 220.253 934.309 221.287 933.189 222.02C932.069 222.753 930.735 223.12 929.189 223.12C927.909 223.12 926.749 222.82 925.709 222.22C924.669 221.607 923.849 220.76 923.249 219.68C922.649 218.6 922.349 217.373 922.349 216ZM945.858 223L942.398 217.16H939.818V223H938.418V209.02H942.618C944.178 209.02 945.358 209.393 946.158 210.14C946.972 210.887 947.378 211.867 947.378 213.08C947.378 214.093 947.085 214.96 946.498 215.68C945.925 216.387 945.072 216.847 943.938 217.06L947.538 223H945.858ZM939.818 216.02H942.638C943.732 216.02 944.552 215.753 945.098 215.22C945.658 214.687 945.938 213.973 945.938 213.08C945.938 212.16 945.672 211.453 945.138 210.96C944.605 210.453 943.765 210.2 942.618 210.2H939.818V216.02Z" fill="black"/>
</svg>
