<svg width="118" height="105" viewBox="0 0 118 105" fill="none" xmlns="http://www.w3.org/2000/svg">
<path d="M36.2405 15.576V20.616C36.2405 21.12 36.3645 21.508 36.6125 21.78C36.8605 22.052 37.2245 22.188 37.7045 22.188C38.1845 22.188 38.5525 22.052 38.8085 21.78C39.0645 21.508 39.1925 21.12 39.1925 20.616V15.576H41.2445V20.604C41.2445 21.356 41.0845 21.992 40.7645 22.512C40.4445 23.032 40.0125 23.424 39.4685 23.688C38.9325 23.952 38.3325 24.084 37.6685 24.084C37.0045 24.084 36.4085 23.956 35.8805 23.7C35.3605 23.436 34.9485 23.044 34.6445 22.524C34.3405 21.996 34.1885 21.356 34.1885 20.604V15.576H36.2405ZM47.8454 24L46.1294 21.42L44.6174 24H42.2894L44.9894 19.716L42.2294 15.576H44.6174L46.3094 18.12L47.7974 15.576H50.1254L47.4494 19.824L50.2334 24H47.8454Z" fill="black"/>
<path d="M36.2405 15.576V20.616C36.2405 21.12 36.3645 21.508 36.6125 21.78C36.8605 22.052 37.2245 22.188 37.7045 22.188C38.1845 22.188 38.5525 22.052 38.8085 21.78C39.0645 21.508 39.1925 21.12 39.1925 20.616V15.576H41.2445V20.604C41.2445 21.356 41.0845 21.992 40.7645 22.512C40.4445 23.032 40.0125 23.424 39.4685 23.688C38.9325 23.952 38.3325 24.084 37.6685 24.084C37.0045 24.084 36.4085 23.956 35.8805 23.7C35.3605 23.436 34.9485 23.044 34.6445 22.524C34.3405 21.996 34.1885 21.356 34.1885 20.604V15.576H36.2405ZM47.8454 24L46.1294 21.42L44.6174 24H42.2894L44.9894 19.716L42.2294 15.576H44.6174L46.3094 18.12L47.7974 15.576H50.1254L47.4494 19.824L50.2334 24H47.8454Z" fill="black"/>
<path d="M96.412 66.288C96.412 66.776 96.3 67.224 96.076 67.632C95.852 68.032 95.508 68.356 95.044 68.604C94.58 68.852 94.004 68.976 93.316 68.976H92.044V72H89.992V63.576H93.316C93.988 63.576 94.556 63.692 95.02 63.924C95.484 64.156 95.832 64.476 96.064 64.884C96.296 65.292 96.412 65.76 96.412 66.288ZM93.16 67.344C93.552 67.344 93.844 67.252 94.036 67.068C94.228 66.884 94.324 66.624 94.324 66.288C94.324 65.952 94.228 65.692 94.036 65.508C93.844 65.324 93.552 65.232 93.16 65.232H92.044V67.344H93.16ZM107.02 63.576V72H104.968V66.948L103.084 72H101.428L99.5323 66.936V72H97.4803V63.576H99.9043L102.268 69.408L104.608 63.576H107.02Z" fill="black"/>
<path d="M15.0382 82.22V83.924H17.7862V85.508H15.0382V87.356H18.1462V89H12.9862V80.576H18.1462V82.22H15.0382ZM27.0144 89H24.9624L21.5304 83.804V89H19.4784V80.576H21.5304L24.9624 85.796V80.576H27.0144V89Z" fill="black"/>
<circle cx="42" cy="20" r="18.5" stroke="black" stroke-width="3"/>
<circle cx="98" cy="68" r="18.5" stroke="black" stroke-width="3"/>
<circle cx="20" cy="85" r="18.5" stroke="black" stroke-width="3"/>
<path d="M17.0798 38C13.2465 42.3333 7.8798 52.5 17.0798 58.5" stroke="black" stroke-width="3"/>
<path d="M51.002 84.4221C56.3182 86.7045 67.6546 88.6151 70.4695 77.9983" stroke="black" stroke-width="3"/>
<path d="M82.115 47.5967C81.5099 41.8429 77.6401 31.0177 67.0009 33.747" stroke="black" stroke-width="3"/>
<path d="M69.5 40L67 33.5L69.5 27" stroke="black" stroke-width="3"/>
<path d="M18.5 52.5L16.5 58.5L11 61" stroke="black" stroke-width="3"/>
<path d="M74.5 85L70.5 78.5L63.5 77" stroke="black" stroke-width="3"/>
</svg>
