<svg width="411" height="50" viewBox="0 0 411 50" fill="none" xmlns="http://www.w3.org/2000/svg">
<g clip-path="url(#clip0_1531_42705)">
<path d="M6.76786 13.702L0 49.5194C5.94384 49.5194 45.1021 49.5194 45.0162 49.5194H47.5664C61.5863 49.4503 69.6664 46.2692 71.1309 36.0313C72.1111 29.1241 66.1009 24.6805 61.188 23.7519C66.1555 22.8386 72.1892 21.1349 73.4467 13.9438C74.3879 8.54852 69.4555 1.03125 56.0252 1.03125H22.6507C13.5006 1.03125 7.77152 7.35128 6.75614 13.7212" fill="black"/>
<path d="M35.0579 13.8893C33.3552 15.9652 23.3421 27.0358 16.0626 35.6122C17.6247 28.517 20.3584 13.329 22.7992 10.2093C24.2323 8.38291 26.2844 7.12214 28.583 6.65595C28.583 6.65595 15.8556 3.06807 12.1808 18.2254C10.8334 23.7972 6.68213 43.5516 6.68213 43.5746C6.76023 43.7396 18.2808 44.6912 23.8654 38.2945C26.3609 35.4318 38.7328 20.3743 42.1304 16.0381C49.2771 6.87467 53.7096 6.27222 53.7096 6.27222C53.7096 6.27222 42.3257 5.04812 35.0579 13.9084" fill="white"/>
<path d="M115.815 49.5177L142.187 1.01427H132.983L113.644 39.0611L108.621 1.01427H98.21L107.141 49.5177H115.815ZM156.602 30.4502L153.806 45.7073C151.881 45.8422 149.949 45.8601 148.022 45.761C143.546 45.6689 139.637 43.8117 140.344 39.2376C141.313 32.9483 147.374 31.1371 156.602 30.4348V30.4502ZM166.47 26.0219C168.142 17.0312 161.233 13.6313 152.849 13.6313C147.381 13.6313 144.308 14.3297 141.059 15.6728L138.325 21.045C142.328 19.3527 146.616 18.8539 150.213 18.8539C155.196 18.8539 158.527 20.2813 157.691 24.8132L157.34 26.6781C143.757 27.4456 132.803 30.5576 131.381 39.2491C130.354 45.5154 136.907 49.9935 147.784 49.9935C153.435 49.9935 158.328 49.7249 162.089 49.441L166.47 26.0219ZM190.968 30.5845L208.636 14.6098H198.873L182.232 30.5615L187.754 1.01427H178.569L169.489 49.5177H178.717L182.053 31.5285L193.073 49.4717H203.879L190.968 30.5845ZM216.196 49.4717L222.707 14.6098H214.009L207.507 49.4717H216.196ZM256.132 2.43791C257.221 1.34812 259.104 0.795545 259.104 0.795545C248.337 -1.67951 236.629 1.75487 234.782 10.4195L234.001 14.6175H228.018L227.08 19.6635H233.056L227.494 49.4793H236.66L242.221 19.6635H249.173L250.141 14.6175H243.174L243.69 11.9774C244.529 7.51082 246.072 3.31665 254.812 4.74412C255.042 3.87318 255.504 3.07835 256.151 2.44175L256.132 2.43791ZM284.148 13.7733C283.211 18.7618 279.345 21.7318 269.176 21.4479C266.247 21.3827 265.536 21.2138 265.536 21.2138L268.391 5.99508C270.406 5.20793 272.561 4.82688 274.729 4.87459C281.637 4.87459 285.246 7.84082 284.148 13.7695V13.7733ZM264.817 25.8454L267.629 25.7495C279.056 25.3658 282.426 30.0089 281.133 36.1486C279.884 42.0427 274.846 44.5024 268.008 44.5024C265.165 44.5024 263.677 44.5024 261.209 44.3796L264.817 25.8454ZM293.978 13.3243C294.95 7.77175 289.631 0.0280849 275.791 0.0280849C268.879 0.0280849 259.51 1.62056 258.514 6.88917L250.641 49.4832C255.394 50.0358 260.057 50.0242 267.301 49.9782C281.751 49.9053 290.081 46.6282 291.592 36.0872C292.603 28.9882 286.406 24.4103 281.34 23.4241C286.46 22.484 292.685 20.738 293.978 13.332V13.3243ZM319.636 30.4502L316.824 45.7073C314.899 45.8424 312.967 45.8604 311.04 45.761C306.561 45.6689 302.659 43.8117 303.378 39.2376C304.331 32.9483 310.408 31.1371 319.636 30.4348V30.4502ZM329.489 26.0219C331.168 17.058 324.263 13.6582 315.867 13.6582C310.4 13.6582 307.275 14.345 304.015 15.6843L301.339 21.0565C305.354 19.3873 309.642 18.8539 313.239 18.8539C318.21 18.8539 321.565 20.2813 320.714 24.8132L320.362 26.6781C306.791 27.4456 295.829 30.5576 294.408 39.2491C293.392 45.5154 299.941 49.9935 310.81 49.9935C316.472 49.9935 321.354 49.7249 325.119 49.441L329.489 26.0219ZM369.655 24.6942C370.709 19.0572 367.464 14.0074 354.752 14.0074C347.578 14.0074 342.286 15.1586 337.959 16.6935L331.801 49.4909H341.119L346.563 20.2199C348.745 19.3692 351.081 18.9607 353.428 19.0189C359.501 19.0189 361.012 21.9007 360.481 24.7518L355.869 49.5177H364.921L369.655 24.6942ZM384.776 30.4502L384.608 30.4118L390.099 1.01427H380.902L371.838 49.4563H381.074L384.378 31.7395H384.522L395.414 49.5177H406.216L393.328 30.6459L411 14.6712H401.217L384.776 30.4502Z" fill="white"/>
</g>
<defs>
<clipPath id="clip0_1531_42705">
<rect width="411" height="50" fill="white"/>
</clipPath>
</defs>
</svg>
