<svg width="162" height="56" viewBox="0 0 162 56" fill="none" xmlns="http://www.w3.org/2000/svg">
<path fill-rule="evenodd" clip-rule="evenodd" d="M0 53.9419H14.991V32.714C14.991 28.633 16.2793 25.6879 20.0658 25.6879C24.6069 25.6879 24.983 29.0105 24.983 32.714V53.9419H39.9748V32.714C39.9748 28.633 41.2588 25.6879 45.0445 25.6879C49.5899 25.6879 49.9676 29.0105 49.9676 32.714V53.9419H64.9603V27.0491C64.9603 20.7007 61.5498 13.752 51.4802 13.752C41.7176 13.752 38.6873 19.4177 38.0785 19.8692C36.2658 15.9421 31.7213 13.752 27.4803 13.752C22.0294 13.752 17.6409 15.4124 14.6124 19.9457H14.4615V14.7314H0V53.9419Z" fill="black"/>
<mask id="mask0_1175_20064" style="mask-type:luminance" maskUnits="userSpaceOnUse" x="65" y="13" width="44" height="42">
<path fill-rule="evenodd" clip-rule="evenodd" d="M65.6895 13.751H108.159V54.9269H65.6895V13.751Z" fill="white"/>
</mask>
<g mask="url(#mask0_1175_20064)">
<path fill-rule="evenodd" clip-rule="evenodd" d="M106.343 29.0895C106.343 21.5295 106.495 13.751 87.7163 13.751C78.4073 13.751 67.9583 15.5636 67.5047 26.5941H81.4359C81.51 24.9303 82.4147 22.5888 87.0351 22.5888C89.4608 22.5888 91.9522 23.5742 91.9522 26.2158C91.9522 28.7094 89.9144 29.3148 87.8681 29.6906C80.2234 31.1291 65.6895 30.6726 65.6895 43.0651C65.6895 51.301 71.9716 54.9271 79.5413 54.9271C84.3825 54.9271 89.003 53.8695 92.1858 50.24H92.3342C92.2575 51.301 92.486 52.8841 92.8654 53.9417H108.159C106.495 51.4507 106.343 48.1272 106.343 45.1787V29.0895ZM91.9522 39.9678C91.7297 44.0471 89.0797 46.085 85.6717 46.085C82.9476 46.085 80.9814 44.2741 80.9814 42.4615C80.9814 39.8165 82.7216 38.9875 86.0511 38.2292C88.1 37.7785 90.1395 37.2489 91.9522 36.3426V39.9678Z" fill="black"/>
</g>
<path fill-rule="evenodd" clip-rule="evenodd" d="M148.088 14.7314H132.801L126.589 38.6077H126.438L120.303 14.7314H104.481L117.355 53.9419H135.065L148.088 14.7314Z" fill="black"/>
<mask id="mask1_1175_20064" style="mask-type:luminance" maskUnits="userSpaceOnUse" x="0" y="0" width="162" height="55">
<path fill-rule="evenodd" clip-rule="evenodd" d="M0 54.9265H161.75V0H0V54.9265Z" fill="white"/>
</mask>
<g mask="url(#mask1_1175_20064)">
<path fill-rule="evenodd" clip-rule="evenodd" d="M146.76 10.5007H161.749V-0.000976562H146.76V10.5007ZM146.761 53.9418H161.749V14.7313H146.761V53.9418Z" fill="black"/>
</g>
</svg>
