<svg width="45" height="45" viewBox="0 0 45 45" fill="none" xmlns="http://www.w3.org/2000/svg">
<path d="M36.5625 7.73438H8.4375C5.33081 7.73438 2.8125 10.2527 2.8125 13.3594V31.6406C2.8125 34.7473 5.33081 37.2656 8.4375 37.2656H36.5625C39.6692 37.2656 42.1875 34.7473 42.1875 31.6406V13.3594C42.1875 10.2527 39.6692 7.73438 36.5625 7.73438ZM36.5625 11.9531C36.882 11.9531 37.1627 12.0791 37.3992 12.2594L24.7508 22.8007C23.4461 23.8854 21.5539 23.8854 20.2492 22.8007L7.60022 12.26C7.83675 12.0794 8.11772 11.9531 8.4375 11.9531H36.5625ZM36.5625 33.0469H8.4375C7.66209 33.0469 7.03125 32.416 7.03125 31.6406V17.2769L17.5492 26.0429C18.983 27.2379 20.7422 27.8339 22.5 27.8339C24.2578 27.8339 26.0156 27.2351 27.452 26.0404L37.9688 17.2775V31.6406C37.9688 32.416 37.3379 33.0469 36.5625 33.0469Z" fill="black"/>
</svg>
