<svg width="45" height="44" viewBox="0 0 45 44" fill="none" xmlns="http://www.w3.org/2000/svg">
<path d="M24.375 38.5H16.875V16.5H24.375V20.1667C25.9737 18.178 28.3981 16.9924 30.9844 16.9345C35.6355 16.9597 39.3885 20.6605 39.375 25.2083V38.5H31.875V26.125C31.5751 24.0765 29.7783 22.5566 27.6619 22.561C26.7361 22.5896 25.8623 22.9859 25.2421 23.6585C24.6218 24.331 24.3087 25.2217 24.375 26.125V38.5ZM13.125 38.5H5.625V16.5H13.125V38.5ZM9.375 12.8333C7.30393 12.8333 5.625 11.1917 5.625 9.16667C5.625 7.14162 7.30393 5.5 9.375 5.5C11.4461 5.5 13.125 7.14162 13.125 9.16667C13.125 10.1391 12.7299 11.0718 12.0267 11.7594C11.3234 12.447 10.3696 12.8333 9.375 12.8333Z" fill="white"/>
</svg>
