<svg width="1440" height="33" viewBox="0 0 1440 33" fill="none" xmlns="http://www.w3.org/2000/svg">
<rect x="1.5" y="1.5" width="61" height="30" stroke="black" stroke-width="3"/>
<rect x="967.5" y="1.5" width="61" height="30" stroke="black" stroke-width="3"/>
<rect x="245.5" y="1.5" width="121" height="30" stroke="black" stroke-width="3"/>
<rect x="792.5" y="1.5" width="121" height="30" stroke="black" stroke-width="3"/>
<rect x="420.5" y="1.5" width="41" height="30" stroke="black" stroke-width="3"/>
<rect x="1207.5" y="1.5" width="41" height="30" stroke="black" stroke-width="3"/>
<rect x="62.5" y="1.5" width="58" height="30" stroke="black" stroke-width="3"/>
<rect x="1028.5" y="1.5" width="58" height="30" stroke="black" stroke-width="3"/>
<rect x="680.5" y="1.5" width="58" height="30" stroke="black" stroke-width="3"/>
<rect x="204.5" y="1.5" width="41" height="19" stroke="black" stroke-width="3"/>
<rect x="1.5" y="-1.5" width="41" height="11" transform="matrix(1 0 0 -1 203 30)" stroke="black" stroke-width="3"/>
<rect x="1099.5" y="1.5" width="41" height="14" stroke="black" stroke-width="3"/>
<rect x="-1.5" y="1.5" width="41" height="30" transform="matrix(-1 0 0 1 1180 0)" stroke="black" stroke-width="3"/>
<rect x="751.5" y="1.5" width="41" height="14" stroke="black" stroke-width="3"/>
<rect x="626.5" y="1.5" width="41" height="14" fill="#FFBA9C" stroke="black" stroke-width="3"/>
<rect x="366.5" y="1.5" width="41" height="10" stroke="black" stroke-width="3"/>
<rect x="913.5" y="1.5" width="41" height="10" stroke="black" stroke-width="3"/>
<rect x="62.5" y="2.5" width="29" height="29" fill="#7197D3" stroke="black" stroke-width="3"/>
<rect x="1028.5" y="1.5" width="29" height="30" stroke="black" stroke-width="3"/>
<rect x="680.5" y="1.5" width="29" height="30" stroke="black" stroke-width="3"/>
<rect x="91.5" y="2.5" width="29" height="29" stroke="black" stroke-width="3"/>
<rect x="1057.5" y="1.5" width="29" height="30" stroke="black" stroke-width="3"/>
<rect x="709.5" y="1.5" width="29" height="30" stroke="black" stroke-width="3"/>
<rect x="120.5" y="1.5" width="42" height="14" stroke="black" stroke-width="3"/>
<rect x="120.5" y="1.5" width="42" height="30" stroke="black" stroke-width="3"/>
<rect x="1099.5" y="15.5" width="29" height="16" stroke="black" stroke-width="3"/>
<rect x="751.5" y="15.5" width="29" height="16" fill="#FFE497" stroke="black" stroke-width="3"/>
<rect x="626.5" y="15.5" width="41" height="16" stroke="black" stroke-width="3"/>
<rect x="366.5" y="11.5" width="29" height="20" stroke="black" stroke-width="3"/>
<rect x="913.5" y="11.5" width="41" height="20" fill="#7197D3" stroke="black" stroke-width="3"/>
<rect x="162.5" y="1.5" width="29" height="14" stroke="black" stroke-width="3"/>
<rect x="162.5" y="1.5" width="29" height="30" fill="#FFE497" stroke="black" stroke-width="3"/>
<rect x="461.5" y="1.5" width="55" height="30" stroke="black" stroke-width="3"/>
<rect x="1.5" y="-1.5" width="55" height="10" transform="matrix(1 0 0 -1 1247 20)" stroke="black" stroke-width="3"/>
<rect x="461.5" y="1.5" width="165" height="30" stroke="black" stroke-width="3"/>
<rect x="1.5" y="-1.5" width="165" height="20" transform="matrix(1 0 0 -1 1247 30)" stroke="black" stroke-width="3"/>
<rect x="1248.5" y="1.5" width="165" height="10" fill="#7197D3" stroke="black" stroke-width="3"/>
<rect x="516.5" y="1.5" width="55" height="30" stroke="black" stroke-width="3"/>
<rect x="1.5" y="-1.5" width="55" height="10" transform="matrix(1 0 0 -1 1302 20)" stroke="black" stroke-width="3"/>
<rect x="571.5" y="1.5" width="55" height="30" stroke="black" stroke-width="3"/>
<rect x="1.5" y="-1.5" width="55" height="10" transform="matrix(1 0 0 -1 1357 20)" stroke="black" stroke-width="3"/>
<rect x="1128.5" y="15.5" width="12" height="16" stroke="black" stroke-width="3"/>
<rect x="780.5" y="15.5" width="12" height="16" stroke="black" stroke-width="3"/>
<rect x="395.5" y="11.5" width="12" height="20" stroke="black" stroke-width="3"/>
<rect x="738.5" y="1.5" width="13" height="20" stroke="black" stroke-width="3"/>
<rect x="738.5" y="9.5" width="13" height="22" stroke="black" stroke-width="3"/>
<rect x="191.5" y="1.5" width="13" height="24" stroke="black" stroke-width="3"/>
<rect x="1086.5" y="1.5" width="13" height="30" stroke="black" stroke-width="3"/>
<rect x="407.5" y="1.5" width="13" height="9" fill="#909090" stroke="black" stroke-width="3"/>
<rect x="1194.5" y="1.5" width="13" height="20" stroke="black" stroke-width="3"/>
<rect x="667.5" y="1.5" width="13" height="22" stroke="black" stroke-width="3"/>
<rect x="1181.5" y="1.5" width="13" height="14" fill="#FF816D" stroke="black" stroke-width="3"/>
<rect x="1181.5" y="1.5" width="13" height="30" fill="#FFBA9C" stroke="black" stroke-width="3"/>
<rect x="191.5" y="20.5" width="13" height="11" fill="#FFBA9C" stroke="black" stroke-width="3"/>
<rect x="407.5" y="11.5" width="13" height="20" stroke="black" stroke-width="3"/>
<rect x="954.5" y="11.5" width="13" height="20" stroke="black" stroke-width="3"/>
<rect x="1194.5" y="11.5" width="13" height="20" stroke="black" stroke-width="3"/>
<rect x="667.5" y="1.5" width="13" height="30" stroke="black" stroke-width="3"/>
<rect x="1181.5" y="1.5" width="13" height="30" stroke="black" stroke-opacity="0.5" stroke-width="3"/>
<rect x="1413.5" y="1.5" width="11" height="30" stroke="black" stroke-width="3"/>
<rect x="-1.5" y="1.5" width="14" height="30" transform="matrix(-1 0 0 1 1437 0)" fill="#FFE497" stroke="black" stroke-width="3"/>
<rect x="1.5" y="-1.5" width="74" height="10" transform="matrix(1 0 0 -1 953 10)" fill="#909090" stroke="black" stroke-width="3"/>
</svg>
