<svg width="77" height="82" viewBox="0 0 77 82" fill="none" xmlns="http://www.w3.org/2000/svg">
<path d="M76.9326 80.1629C76.9684 80.6628 76.9906 81.1632 77 81.6639H0C1.09646 79.1284 2.02071 73.6096 3.6817 71.4445C5.41811 69.1821 7.33386 67.107 9.41367 65.1854C9.52066 65.086 9.6562 65.2341 9.56856 65.3462C9.43507 65.5177 9.3026 65.6901 9.17114 65.8626C9.34743 65.8245 9.52372 65.7908 9.70103 65.7621C10.8006 63.868 12.5522 62.3833 14.3824 61.3072C18.5655 58.8479 23.3935 58.0606 27.8079 56.195C29.7522 55.3728 31.6313 54.2861 33.1822 52.8025C33.9098 52.1073 34.5783 51.337 35.1173 50.4735C35.3914 50.0343 35.638 49.575 35.8459 49.0988C36.0548 48.6184 36.1812 48.1158 36.437 47.6576C36.8486 46.9179 38.0062 47.2323 37.994 48.0957C37.9767 49.3115 37.2766 50.5878 36.6469 51.5846C35.9876 52.6291 35.1825 53.5718 34.2766 54.3919C30.6306 57.6903 25.8993 58.9421 21.3433 60.2405C19.131 60.8712 16.9901 61.5611 14.9184 62.5949C13.2625 63.4236 11.7564 64.4309 10.3838 65.6647C11.3172 65.5527 21.4014 65.9495 23.3192 65.8923C30.3911 65.6795 37.4733 65.7049 44.5463 65.8352C48.066 65.8997 51.5856 65.997 55.1043 66.1262C56.8978 66.1918 58.6912 66.2669 60.4837 66.3494C61.3631 66.3897 62.2425 66.4319 63.1209 66.4774C63.5051 66.4966 63.8903 66.5039 64.2734 66.5282C65.2466 66.2298 66.3033 66.16 67.3417 66.27C66.664 65.6193 65.9517 65.0066 65.1905 64.4638C62.1274 62.2775 58.4803 61.2099 55.4599 58.9548C52.9338 57.067 50.7388 54.0829 50.8377 50.7062C50.8397 50.6143 50.9773 50.5878 50.9966 50.684C51.3737 52.5263 52.3346 54.2141 53.6848 55.4659C54.8862 56.5792 56.1518 57.5654 57.5581 58.3844C59.1722 59.3231 60.8485 60.1304 62.5003 60.9907C64.1338 61.8406 65.7051 62.7845 67.1379 63.9663C67.8614 64.5632 68.5441 65.2108 69.1973 65.8881C69.5662 66.27 70.0227 66.6785 70.3885 67.1324C70.4079 67.1409 70.4272 67.1495 70.4456 67.1589C75.1106 69.451 76.5821 75.2573 76.9326 80.1629Z" fill="black"/>
<path fill-rule="evenodd" clip-rule="evenodd" d="M64.3168 43.7281C63.9251 43.1247 62.9817 38.7462 62.3791 38.0727C62.4245 35.4861 63.1112 26.5306 61.15 22.5049C61.5625 22.0705 62.6588 18.3286 62.3791 16.914C63.303 13.9515 57.3676 9.24631 55.1087 7.97485C44.6103 2.1122 29.3973 8.58357 24.6228 19.444C21.7537 25.9846 21.7008 33.3076 21.3765 40.3453C21.3381 41.8517 21.2052 43.3698 21.2067 44.8744C21.4141 46.1966 22.4208 47.543 21.6576 48.6424C20.8147 49.2496 19.111 50.7288 19.8695 51.5676C20.3141 51.9531 21.0242 51.7295 21.5066 52.1001C21.7522 52.2432 21.9054 52.5568 22.1927 52.6045C24.8163 52.5007 26.6678 52.4919 29.2996 52.3811C30.4517 52.3419 32.2061 52.8493 33.5285 51.839C38.1479 54.5147 36.2157 50.6328 37.1498 47.869C39.9943 48.8705 45.6605 52.0645 48.6925 52.1677C51.1564 52.4848 53.4603 50.9905 55.8826 51.3306C58.8919 52.4949 62.4185 52.7537 65.1749 50.7839C65.8628 50.268 66.6282 50.8657 67.4951 50.3085C69.1802 49.4693 65.1672 44.6591 64.3168 43.7281Z" fill="white"/>
<path fill-rule="evenodd" clip-rule="evenodd" d="M60.8791 22.1616C60.8418 21.9381 61.1374 21.7715 61.2517 21.9979C62.0825 23.6428 62.4152 25.5478 62.7095 27.3647C63.0067 29.2007 63.2031 31.0444 63.2139 32.9082C63.2222 34.3419 63.0972 35.7921 62.8625 37.2269L62.891 37.329C62.9437 37.5165 62.9969 37.7039 63.0507 37.8912L63.1318 38.1719C63.2885 38.7111 63.437 39.2527 63.598 39.7905C63.9341 40.9129 64.2881 42.0385 64.7216 43.1247C65.1446 44.1847 65.659 45.2069 66.2705 46.1623C66.8599 47.0833 67.7952 47.862 68.2104 48.8849C68.3551 49.2413 68.1411 49.7126 67.7414 49.6556C67.7154 49.6883 67.6758 49.7119 67.622 49.7169C67.3117 49.7451 67.0208 49.7182 66.7111 49.688C66.5383 49.6711 66.5386 49.425 66.7111 49.4081C66.8427 49.3952 66.9708 49.3839 67.0988 49.3762C66.2132 48.8297 65.5814 47.7627 65.0763 46.8891C64.4271 45.7668 63.9368 44.5405 63.5371 43.3004C63.1267 42.0272 62.836 40.7274 62.6024 39.4077C62.5756 39.2558 62.5501 39.1038 62.5256 38.9515C62.2305 40.258 61.8505 41.5406 61.4001 42.7732L61.337 42.9448C60.2987 45.7479 58.8924 48.5779 56.5535 50.4307C56.4473 50.5147 56.3389 50.5944 56.2296 50.6725L56.3627 50.7519C56.4951 50.8306 56.6256 50.9062 56.7531 50.9682C57.2258 51.1978 57.7388 51.3729 58.2463 51.4969C59.2946 51.7533 60.3954 51.6798 61.4648 51.7155C61.8156 51.7273 62.0151 52.2749 61.6566 52.4528C60.4754 53.0386 59.1996 52.9142 57.9804 52.5021C57.3771 52.298 56.811 52.0124 56.2872 51.6395C56.0707 51.4854 55.8192 51.2952 55.6069 51.0753C53.2678 52.4383 50.3604 52.5908 47.7569 52.1034C46.4039 51.85 45.0929 51.3873 43.9394 50.5959C42.8298 49.8348 42.039 48.8712 41.4743 47.6228C41.4242 47.5122 41.5635 47.3743 41.649 47.4825C43.4226 49.7258 46.4748 50.6619 49.16 50.8399C50.5927 50.935 52.0583 50.856 53.4358 50.4096C54.7425 49.9859 55.8637 49.2094 56.7999 48.1768C58.6974 46.0835 59.8344 43.2359 60.651 40.5259C61.5394 37.5777 61.9624 34.4759 62.0496 31.3905C62.0938 29.8274 62.0382 28.251 61.8025 26.7051C61.5686 25.172 61.1346 23.6882 60.8791 22.1616ZM34.2873 8.88071C34.4129 8.81422 34.5014 8.98724 34.3948 9.07236C32.1832 10.8387 30.2025 13.0784 28.5994 15.449C25.6429 19.821 23.7468 24.8804 22.8737 30.1375C22.3582 33.2421 22.2236 36.3938 22.2751 39.5398C22.2955 40.7895 22.364 42.0354 22.4403 43.2817L22.5263 44.6632C22.5663 45.3068 22.5997 45.945 22.5739 46.5917L22.5668 46.7411C22.5259 47.4938 22.597 48.2524 22.4157 48.9866C22.3227 49.3631 21.8128 49.4224 21.6282 49.0938C21.592 49.0294 21.5582 48.9631 21.5254 48.8961C21.0927 49.631 20.5323 50.2879 19.9105 50.8748C20.2077 50.809 20.5078 50.767 20.8159 50.8054C21.3042 50.8663 21.7423 51.0627 22.0522 51.4069C22.3599 51.2625 22.6763 51.163 23.0401 51.161C23.308 51.1595 23.5089 51.4894 23.356 51.7345C23.051 52.2236 22.6255 52.4978 22.1419 52.7688C21.7991 52.961 21.3901 52.7966 21.2635 52.4168L21.2563 52.3938C21.1139 51.9133 20.3564 51.9909 19.999 52.0652L19.8938 52.0876C19.2286 52.2317 18.5789 52.4163 17.9012 52.226C17.4641 52.1032 17.3498 51.4179 17.7712 51.1904C19.1026 50.472 20.2202 49.5069 21.3688 48.538C21.1151 47.8904 20.9711 47.167 20.8051 46.5085C20.5714 45.5818 20.5031 44.5846 20.4187 43.6326C20.2582 41.8226 20.1971 39.993 20.2143 38.1759C20.2725 32.0385 21.2804 25.8821 23.855 20.3245C24.9829 17.8899 26.4646 15.6371 28.2161 13.6431C29.9572 11.6608 31.9907 10.0955 34.2873 8.88071ZM32.2261 38.9371C32.1578 38.8385 32.2911 38.7081 32.3846 38.772C34.4088 40.1567 35.8136 42.2593 36.72 44.5691C37.6172 46.8559 38.1682 49.6569 37.2833 52.0415C37.1424 52.4213 36.4679 52.5623 36.3988 52.0415C36.0903 49.7158 36.0424 47.3867 35.3641 45.1256C34.6916 42.8841 33.541 40.8315 32.2261 38.9371ZM30.6565 46.4876C30.6676 46.4465 30.732 46.4536 30.7292 46.4979C30.6785 47.318 30.6441 48.1481 30.5451 48.9637C30.497 49.3601 30.4333 49.7539 30.3792 50.1494C30.3236 50.5549 30.332 50.9644 30.1056 51.3107C29.8055 51.7699 29.0083 51.6407 29.0351 51.0088C29.0536 50.5729 29.2459 50.2932 29.4261 49.9106C29.5417 49.6653 29.6424 49.4117 29.7395 49.157L29.8838 48.775C30.1706 48.0173 30.4451 47.2724 30.6565 46.4876ZM27.0317 44.3151C27.044 44.2505 27.1439 44.2661 27.1409 44.3304C27.0869 45.4912 26.9612 46.639 26.7643 47.7828C26.6745 48.3042 26.5698 48.8226 26.4591 49.3396L26.4113 49.5611C26.2929 50.1056 26.2165 50.7457 25.9512 51.2321C25.6862 51.7183 25.0568 51.3652 25.1383 50.8752C25.2336 50.3031 25.5707 49.7276 25.7667 49.1782C25.9476 48.671 26.1057 48.1548 26.2535 47.6361C26.5645 46.5444 26.8196 45.4321 27.0317 44.3151ZM33.7818 47.5377L33.8054 47.5126C33.8975 47.4083 34.0349 47.4778 34.0789 47.5878C34.259 48.0387 34.1688 48.5705 34.156 49.0492L34.1536 49.1536C34.144 49.6385 34.1507 50.0927 33.9395 50.5404C33.6831 51.084 33.0076 50.7464 32.9553 50.2628C32.8982 49.7351 33.1379 49.2185 33.2926 48.7242C33.391 48.4101 33.4626 48.0834 33.6122 47.7983C33.4843 47.8213 33.3566 47.8673 33.2397 47.9005C33.1873 47.9152 33.1675 47.8351 33.2175 47.8166C33.4109 47.7453 33.6291 47.6918 33.7818 47.5377ZM60.7303 49.138C60.6685 49.066 60.7455 48.9702 60.8257 49.0091C61.7883 49.4773 62.6887 49.7819 63.7509 49.8816C64.2112 49.9249 64.214 50.6779 63.7509 50.6342C62.6423 50.5303 61.4805 50.0126 60.7303 49.138ZM26.8617 33.3186C27.7092 31.3332 30.3904 29.572 32.1884 31.4183C32.2221 31.4528 32.1878 31.5281 32.1388 31.507C31.0205 31.0243 29.6514 31.6382 28.8775 32.5162C28.2634 33.2126 27.8944 34.1068 27.8212 35.0493C27.748 35.9927 27.9645 36.9773 28.5661 37.7069C28.8817 38.0897 29.3079 38.452 29.8094 38.498C30.3157 38.5445 30.7377 38.1731 31.2164 38.0722C31.5773 37.9963 31.8496 38.2321 31.885 38.6025C31.963 39.4201 31.1814 39.9688 30.5039 40.1021C29.7751 40.2453 29.0312 40.0888 28.4032 39.6775C26.3749 38.3491 25.9374 35.4841 26.8617 33.3186ZM45.8921 13.8588C46.2606 13.492 46.8875 13.8566 46.7515 14.3799C46.4623 15.4936 45.8477 16.4349 45.1667 17.3283C44.5115 18.1878 43.8096 19.0138 43.0573 19.7826C42.3099 20.5463 41.4978 21.253 40.6444 21.8843L40.3873 22.0739C39.7825 22.5179 39.1418 22.967 38.4648 23.2868C38.3013 24.7535 37.9814 26.2007 37.4975 27.5862C37.0315 28.9204 36.4385 30.2097 35.72 31.4164L35.6168 31.5892C34.9565 32.6912 34.1626 33.9227 33.0421 34.5268C33.0085 34.5451 32.9748 34.5562 32.9416 34.5627C33.1923 34.7367 33.4041 34.9556 33.53 35.2702C33.668 35.6146 33.3796 35.9395 33.1031 36.0533C32.5185 36.2938 31.9482 35.8866 31.4227 35.4523C31.4005 35.5044 31.3795 35.5569 31.3615 35.61C31.244 35.9568 31.2094 36.3113 30.9064 36.5415C30.7624 36.6509 30.585 36.553 30.4943 36.4291C30.1972 36.0225 30.5048 35.4686 30.766 35.1364C30.8022 35.0905 30.8396 35.0468 30.878 35.0049C30.7676 34.9204 30.6599 34.8455 30.5555 34.788C29.9419 34.4495 29.0322 34.3895 28.6788 35.1388C28.6517 35.1963 28.5667 35.1665 28.5667 35.107C28.5675 34.1868 29.4728 33.687 30.2583 33.619C30.8323 33.5694 31.3874 33.779 31.904 34.0231L32.0004 34.0692C32.1926 34.1622 32.3907 34.2499 32.5803 34.348C32.5494 34.2632 32.5499 34.1636 32.5985 34.0648C33.1926 32.8565 34.2127 31.874 34.9485 30.7549C35.6781 29.6448 36.3045 28.4567 36.8045 27.2161C37.2898 26.0119 37.67 24.77 37.9359 23.5032C37.8483 23.5221 37.7496 23.4409 37.7558 23.3457C37.7706 23.1153 37.8789 22.9078 38.0689 22.8194C38.2782 21.6279 38.3851 20.4162 38.3789 19.1948C38.3784 19.1001 38.5101 19.1035 38.5178 19.1948C38.6103 20.2808 38.6179 21.3774 38.5401 22.4676C39.0344 21.9939 39.5558 21.5436 40.0318 21.0574C40.7481 20.3258 41.441 19.5746 42.1094 18.7955C42.7914 18.0007 43.436 17.1767 44.0254 16.3048L44.3339 15.8475C44.8082 15.1465 45.2954 14.4529 45.8921 13.8588ZM44.9621 6.03358C49.0298 5.76915 53.374 6.28977 57.0277 8.27823C59.0344 9.3702 60.5854 11.0206 61.6937 13.0746C62.3554 14.3011 62.8574 15.6592 63.0475 17.0555C63.2428 18.4902 63.0135 19.7695 62.1339 20.91C61.7845 21.3629 61.196 20.857 61.2821 20.3936C61.8087 17.5585 60.9546 14.7575 59.4397 12.4104C57.2415 9.00449 53.4026 7.49155 49.665 6.81665C47.8286 6.48523 45.966 6.34668 44.103 6.4141C42.6826 6.46557 41.2256 6.60339 39.8777 7.10104C39.8208 7.12204 39.7982 7.02982 39.853 7.0081C41.4608 6.36861 43.2557 6.14453 44.9621 6.03358ZM50.9948 12.4442C51.2042 12.306 51.4604 12.4478 51.5324 12.6721C51.7862 13.4628 51.2542 14.5074 50.8984 15.1917C50.4958 15.966 49.978 16.69 49.4433 17.3701C48.3736 18.7302 46.9676 19.865 45.4248 20.5783C45.3303 20.6221 45.2202 20.5033 45.3069 20.4193C46.5006 19.2617 47.583 18.0206 48.52 16.6283C48.9803 15.9441 49.3643 15.2224 49.731 14.481C50.0591 13.8175 50.3677 12.8582 50.9948 12.4442ZM57.836 13.3757C57.9698 12.889 58.732 12.9719 58.7005 13.4975C58.619 14.8555 58.0038 16.2186 57.3354 17.3694C56.6471 18.5544 55.7755 19.6104 54.7763 20.5225C54.7271 20.5675 54.6597 20.4982 54.7043 20.4475C55.5663 19.4647 56.2626 18.3453 56.7782 17.127C57.2933 15.9105 57.4877 14.6412 57.836 13.3757ZM54.0477 13.1558C54.1935 12.7327 54.8912 12.7641 54.8484 13.2687C54.7308 14.656 53.949 16.1099 53.225 17.2556C52.4566 18.4713 51.4759 19.5423 50.3798 20.4418C50.3388 20.4754 50.2807 20.4197 50.3208 20.3803C51.3053 19.4144 52.1037 18.2985 52.7357 17.0539C53.0583 16.4188 53.3289 15.7575 53.5426 15.0744C53.7403 14.4424 53.8331 13.7787 54.0477 13.1558Z" fill="black"/>
<path fill-rule="evenodd" clip-rule="evenodd" d="M53.0686 45.644C52.246 45.8819 51.3631 45.9032 50.5247 45.6574C49.7642 45.4345 48.9833 44.944 48.4236 44.2948C47.9264 43.7181 47.6044 43.0174 47.617 42.2693C47.6184 42.1839 47.649 42.1126 47.6961 42.0572C47.7467 41.9976 47.8175 41.9567 47.8932 41.939C47.9712 41.9207 48.0536 41.9272 48.1237 41.959C48.1872 41.9878 48.2417 42.0368 48.2757 42.1083C48.3617 42.2211 48.4474 42.3323 48.5334 42.4404C49.225 43.2935 49.8948 43.9309 50.9348 44.1596C51.4991 44.2837 52.0626 44.2286 52.5797 44.0393C53.1332 43.8367 53.6336 43.4804 54.0257 43.0244C54.2029 42.8184 54.4121 42.7343 54.6166 42.7328C54.8484 42.7312 55.0776 42.8388 55.2502 43.0108C55.4198 43.1798 55.5335 43.4095 55.5437 43.6498C55.5528 43.8607 55.4839 44.081 55.3007 44.2775C54.6971 44.9249 53.9149 45.3991 53.0686 45.644ZM53.0438 34.9605C53.887 35.4724 55.1717 36.6661 54.2647 37.9352C53.197 39.0542 51.6597 37.7712 50.9021 37.1909C50.1997 36.7412 49.4105 37.8979 50.0622 38.423C55.5362 42.471 57.7577 35.0943 53.4703 34.3586C52.9982 34.2775 52.8229 34.8021 53.0438 34.9605ZM45.1555 32.708C44.8845 32.5348 44.5657 32.4754 44.2124 32.636C43.9363 32.7614 43.452 33.1795 43.115 33.729C42.8845 34.105 42.721 34.5461 42.755 35.0056C42.7629 35.1123 42.7235 35.1909 42.6612 35.2491C42.612 35.295 42.541 35.3288 42.4576 35.3394C42.3867 35.3483 42.3075 35.3402 42.243 35.3201C42.1204 35.2819 42.0555 35.2025 42.031 35.1376C41.7951 34.5117 41.8967 33.8132 42.1612 33.1831C42.5181 32.3326 43.1662 31.6203 43.5908 31.3906C44.3175 30.9975 45.1747 30.9794 45.9024 31.3799C46.5218 31.7208 46.9091 32.2711 47.2944 32.8321C47.3763 32.9514 47.4575 33.0698 47.5415 33.186C47.7099 33.4191 47.7266 33.6502 47.6614 33.8484C47.5892 34.0679 47.4051 34.2532 47.1748 34.3502C46.9619 34.4398 46.7149 34.4524 46.4963 34.3604C46.3117 34.2826 46.1422 34.1309 46.035 33.8736C45.8544 33.4403 45.5535 32.9622 45.1555 32.708ZM58.9201 33.6718C58.7345 33.7684 58.5893 33.7976 58.3834 33.7359C58.2696 33.7018 58.157 33.6363 58.0689 33.5483C57.9816 33.4611 57.9186 33.3527 57.8942 33.2324C57.8339 32.9354 57.6713 32.6575 57.4395 32.4763C57.2414 32.3214 56.9913 32.2393 56.714 32.2856C56.4147 32.3356 56.1295 32.5273 55.9331 32.7533C55.8675 32.829 55.816 32.9149 55.7643 33.0002C55.6675 33.1598 55.5735 33.3081 55.44 33.4253C55.3894 33.4698 55.3132 33.5007 55.2394 33.5007C55.2094 33.5007 55.1789 33.4958 55.1499 33.4868C54.852 33.1882 54.7947 32.9616 54.8043 32.7369C54.8144 32.5013 54.9074 32.2627 55.0577 32.0401C55.4103 31.5179 56.0797 31.0898 56.5315 30.9928C57.1501 30.86 57.7645 31.0194 58.2571 31.3645C58.7639 31.7196 59.1395 32.271 59.2566 32.8923C59.2848 33.042 59.2728 33.2035 59.2157 33.3436C59.16 33.4804 59.0628 33.5976 58.9201 33.6718ZM46.5203 27.1405C46.149 27.5018 45.7096 27.5577 45.2651 27.6075C45.0181 27.6354 44.8209 27.6579 44.6268 27.7017C44.0935 27.8219 43.5663 28.003 43.0854 28.2638C42.5826 28.5365 42.0347 28.8653 41.6405 29.2866C41.5468 29.3868 41.4584 29.492 41.37 29.5974C41.2893 29.6936 41.2116 29.7861 41.1297 29.8753C41.0356 29.9778 40.9463 30.0852 40.8574 30.1924C40.8025 30.2828 40.7916 30.305 40.7806 30.3282C40.7639 30.3629 40.7445 30.4019 40.7224 30.4436C40.6921 30.5008 40.6566 30.5634 40.6195 30.6202C40.5576 30.7239 40.5245 30.7525 40.4958 30.7653C40.4482 30.7864 40.4031 30.7968 40.3593 30.7912C40.3183 30.7859 40.2796 30.7662 40.2415 30.734C40.0508 30.5731 39.9946 30.3091 40.0004 30.0289C40.0091 29.6037 40.1662 29.1329 40.3109 28.8435C40.6475 28.171 41.1143 27.4719 41.6756 26.97C42.3161 26.397 43.0168 25.9633 43.8216 25.6644C44.3218 25.4786 44.9009 25.3081 45.4458 25.3296C45.838 25.3451 46.2125 25.4616 46.5217 25.7524C46.7116 25.9309 46.8027 26.1849 46.8027 26.4386C46.8027 26.6974 46.7081 26.9578 46.5203 27.1405ZM59.6748 30.4491C59.6512 30.4878 59.6185 30.5144 59.5821 30.5304C59.544 30.5472 59.5015 30.552 59.4606 30.5452C59.42 30.5383 59.3813 30.5199 59.3507 30.4918C59.3213 30.4648 59.2989 30.429 59.2889 30.3852C59.0424 29.3039 58.5638 28.4994 57.5422 27.9806C57.0397 27.7253 56.4619 27.5632 55.9148 27.4339C55.7559 27.3963 55.5879 27.372 55.4187 27.3473C54.8886 27.27 54.3546 27.1814 54.009 26.7534C53.8008 26.4956 53.7134 26.1659 53.7628 25.8643C53.8093 25.5804 53.9754 25.32 54.2774 25.164C55.0291 24.7758 55.9633 25.1567 56.7225 25.4813C56.7788 25.5053 56.8341 25.529 56.8882 25.5518C57.6305 25.8648 58.3076 26.2779 58.8642 26.8688C59.3058 27.3375 59.715 28.0305 59.8798 28.7433C60.0169 29.3364 59.9847 29.9419 59.6748 30.4491Z" fill="black"/>
</svg>
